<svg width="128" height="128" viewBox="0 0 128 128" fill="none" xmlns="http://www.w3.org/2000/svg">
<path d="M22.5078 15.5038C24.949 14.7151 27.3903 13.9263 29.9226 13.2876C29.293 15.9296 28.5122 18.4059 27.8667 20.9174C27.042 24.1258 26.3518 27.369 25.5509 30.5839C25.2575 31.762 24.9136 32.9481 24.4157 34.0495C23.5865 35.8837 22.4493 37.5913 21.7613 39.4706C21.3077 40.7099 21.4142 42.1568 21.2619 43.6506C20.3983 45.758 19.5426 47.7255 18.573 49.6424C17.9197 49.7921 17.2023 49.8356 16.8693 50.218C14.5018 52.9363 12.3131 55.8181 9.86384 58.4564C8.21633 60.231 6.23557 61.6924 4.40389 63.2939C4.14215 63.1763 3.88041 63.0587 3.61866 62.9411C3.53193 61.3454 3.44519 59.7497 3.36174 57.993C3.25383 56.2321 3.70376 55.0535 5.27095 54.2295C6.48083 53.5934 7.63273 52.6465 8.49534 51.5798C10.6908 48.8649 12.8159 46.0778 14.7665 43.1814C16.3892 40.7718 17.9602 38.2711 19.1278 35.6207C20.6664 32.1278 22.2492 28.5358 22.9394 24.822C23.468 21.978 25.4016 18.7083 22.5442 15.8789C22.4759 15.8113 22.5175 15.6314 22.5078 15.5038Z" fill="#FB97C2"/>
<path d="M22.3719 15.5083C22.5175 15.6315 22.476 15.8114 22.5442 15.879C25.4016 18.7085 23.468 21.9781 22.9394 24.8222C22.2492 28.5359 20.6664 32.128 19.1278 35.6208C17.9602 38.2713 16.3892 40.7719 14.7665 43.1816C12.8159 46.078 10.6909 48.8651 8.49536 51.58C7.63275 52.6467 6.48085 53.5936 5.27097 54.2297C3.70378 55.0536 3.25385 56.2323 3.28984 57.9933C3.21463 58.1544 3.07057 58.1599 3.07057 58.1599C3.04932 56.0886 3.02808 54.0174 3.11178 51.6581C4.28479 50.107 5.21547 48.6848 6.44608 47.6103C10.507 44.0646 12.7615 39.3762 14.9288 34.6049C15.7721 32.7484 16.6508 30.9077 17.5399 29.0729C19.3466 25.3445 20.7741 21.5604 19.4243 17.3221C20.3615 16.719 21.2988 16.1158 22.3719 15.5083Z" fill="#FCA1BA"/>
<path d="M3.03976 58.3365C3.07054 58.1599 3.21461 58.1544 3.28653 58.1543C3.44519 59.7498 3.53192 61.3456 3.61865 62.9413C3.8804 63.0589 4.14214 63.1765 4.40389 63.2941C6.23556 61.6926 8.21632 60.2312 9.86383 58.4566C12.3131 55.8183 14.5018 52.9365 16.8693 50.2182C17.2023 49.8358 17.9196 49.7923 18.5608 49.8038C18.258 52.5979 17.8533 55.1802 17.3269 57.8C16.3357 59.067 15.4664 60.2965 14.5323 61.6174C14.3275 61.5014 13.8299 61.2196 13.3377 60.9409C12.9127 62.4053 12.7542 63.8404 12.0998 64.9897C11.2038 66.5635 10.006 67.9878 8.79451 69.3471C7.93397 70.3127 6.84015 71.0686 5.84501 71.9116C5.04879 72.5861 4.24438 73.2507 3.4436 73.9197C3.29773 72.8051 3.04003 71.6918 3.0261 70.5755C2.97594 66.5553 3.00799 62.534 3.03976 58.3365Z" fill="#F38DCA"/>
<path d="M19.2858 17.3408C20.774 21.5605 19.3465 25.3446 17.5399 29.073C16.6508 30.9078 15.7721 32.7485 14.9288 34.6049C12.7614 39.3763 10.5069 44.0647 6.44605 47.6104C5.21544 48.6849 4.28476 50.1071 3.14166 51.4794C3.17144 49.0065 3.27625 46.4242 3.49956 43.5886C4.72109 42.8792 6.30529 42.7385 6.841 41.9108C8.80043 38.8833 10.5632 35.6998 12.1041 32.4338C13.34 29.814 13.8315 26.807 15.2524 24.318C16.247 22.5758 16.4125 21.567 14.8345 20.4028C16.2721 19.3883 17.7097 18.3739 19.2858 17.3408Z" fill="#FCA8B4"/>
<path d="M3.41656 74.0834C4.24438 73.2508 5.0488 72.5861 5.84501 71.9116C6.84015 71.0686 7.93397 70.3127 8.79451 69.3471C10.006 67.9878 11.2038 66.5636 12.0998 64.9898C12.7542 63.8404 12.9127 62.4053 13.3377 60.9409C13.8299 61.2196 14.3275 61.5015 14.5323 61.6175C15.4664 60.2965 16.3357 59.067 17.3556 57.9775C17.6142 60.8214 17.7224 63.5251 17.6825 66.229C16.855 66.4808 15.9606 66.5404 15.5364 67.0206C14.291 68.4302 13.0796 69.9164 12.1312 71.5365C9.88582 75.3719 7.80012 79.302 5.64987 83.1939C4.89642 80.2116 4.14297 77.2293 3.41656 74.0834Z" fill="#EB89D1"/>
<path d="M14.7141 20.4497C16.4125 21.5669 16.247 22.5757 15.2524 24.3179C13.8315 26.8069 13.34 29.8139 12.1041 32.4337C10.5632 35.6997 8.80041 38.8832 6.84098 41.9107C6.30526 42.7384 4.72107 42.8791 3.53119 43.423C4.30602 39.9664 4.98396 36.3634 6.07326 32.8911C7.63195 27.9224 10.818 23.9785 14.7141 20.4497Z" fill="#FBB0AE"/>
<path d="M118.824 89.3213C117.4 91.2266 115.976 93.1318 114.406 94.9528C113.449 92.7701 112.006 94.0958 110.911 94.3581C106.539 95.405 102.049 96.2027 97.8945 97.8419C94.2938 99.2626 91.0547 101.642 87.7352 103.726C87.0899 104.131 86.8101 105.126 86.185 105.855C84.4001 105.862 82.792 105.862 81.1839 105.862C81.0945 105.629 81.0051 105.396 80.9158 105.164C81.6009 104.498 82.1772 103.61 82.9907 103.206C86.0572 101.685 89.2252 100.372 92.3099 98.8859C96.7519 96.7459 101.161 94.5357 105.561 92.3094C105.888 92.1438 106.031 91.6091 106.403 91.222C107.332 90.9407 108.102 90.5526 108.908 90.4492C112.207 90.0259 115.518 89.6896 118.824 89.3213Z" fill="#BEE175"/>
<path d="M21.2698 43.5106C21.4142 42.1567 21.3077 40.7098 21.7614 39.4705C22.4493 37.5912 23.5865 35.8836 24.4157 34.0494C24.9136 32.948 25.2575 31.762 25.551 30.5838C26.3518 27.3689 27.0421 24.1257 27.8667 20.9173C28.5122 18.4058 29.2931 15.9295 30.076 13.3125C32.0634 12.9149 33.9885 12.6423 35.9697 12.4795C35.6662 12.7186 35.3152 12.8836 34.9459 12.9716C32.0394 13.6649 31.6945 14.3299 32.4311 17.2554C32.636 18.069 32.6275 19.0565 32.3675 19.8481C31.3387 22.9805 30.1107 26.047 29.0912 29.1822C28.7728 30.1611 28.8784 31.2796 28.7899 32.3341C29.6302 32.3496 30.4705 32.365 31.2611 32.5041C29.6044 33.9808 27.8173 35.1718 26.434 36.7264C24.5512 38.8424 22.9766 41.236 21.2698 43.5106Z" fill="#FB8CC5"/>
<path d="M90.2074 12.7109C93.6079 13.5257 97.0084 14.3405 100.333 15.2929C99.0679 15.9573 96.9187 15.9637 98.819 18.1659C98.9353 18.3007 98.7908 18.805 98.6222 19.024C97.4592 20.5345 97.8795 21.9585 98.6761 23.4652C99.2651 24.5792 99.6588 25.7977 100.139 27.1302C100.137 27.8253 100.136 28.3598 99.9586 28.8949C97.8623 29.0231 95.9427 29.1506 94.0248 29.1198C93.8665 27.2436 93.8833 25.482 93.4786 23.8246C93.244 22.8634 92.3318 22.0697 91.7247 21.0328C91.6558 19.9931 91.6735 19.1032 91.4999 18.2528C91.1207 16.3949 90.6442 14.557 90.2074 12.7109Z" fill="#94A4F4"/>
<path d="M62.6535 12.0315C66.1059 12.0138 69.5584 11.9961 73.1875 12.0851C73.3642 12.1918 73.3635 12.348 73.2122 12.3617C71.4723 13.3161 72.2525 14.7336 72.4725 15.9228C73.1495 19.5824 71.7436 22.5688 69.4482 25.1348C68.8148 25.8429 67.3528 25.8005 66.3362 26.0842C66.4726 26.2958 66.6686 26.5998 66.6881 26.9323C64.717 26.9429 62.9222 26.9251 61.1411 26.7629C61.5871 26.3524 62.0332 26.106 62.4487 25.8153C63.0681 25.3819 64.1117 24.9913 64.1999 24.4537C64.7305 21.2219 66.0037 18.1402 65.5316 14.6836C65.2412 12.5577 64.43 12.1132 62.6537 12.2678C62.6536 12.1891 62.6535 12.0315 62.6535 12.0315Z" fill="#B883E8"/>
<path d="M40.496 108.962C40.3117 109.081 40.1274 109.2 39.7474 109.263C39.2321 109.509 38.9124 109.81 38.5927 110.111C36.8927 111.001 35.1927 111.891 33.4332 112.661C33.2137 111.362 33.1954 110.136 32.8313 109.025C32.6604 108.504 31.8229 108.203 31.2299 107.69C30.8316 107.007 30.491 106.438 30.1533 105.723C30.3957 104.774 30.6353 103.971 30.9349 103.057C32.2318 102.501 33.4687 102.056 34.7844 101.58C34.9603 101.488 35.0423 101.411 35.2148 101.28C35.4979 101.113 35.6752 100.983 36.0164 100.857C39.0442 99.6246 41.1533 102.014 43.8449 102.291C43.3413 103.378 42.9378 104.283 42.5039 105.174C42.0919 106.019 41.6537 106.852 41.2159 107.684C40.9884 108.117 40.7367 108.537 40.496 108.962Z" fill="#BC98C4"/>
<path d="M23.3366 101.649C22.1961 100.833 21.0557 100.017 19.7878 98.9935C19.4538 98.7139 19.2472 98.6425 19.0407 98.5712C19.0407 98.5712 19.0526 98.5565 19.0281 98.4245C18.928 97.9828 18.7103 97.622 18.7993 97.3716C19.4864 95.4401 20.1968 93.5151 20.9752 91.6193C21.4082 90.5648 21.9853 89.5702 22.6221 88.5185C23.4264 87.8674 24.1061 87.2465 24.7947 86.7842C24.9327 87.8234 25.0994 88.7005 25.1843 89.5855C25.5078 92.9573 26.7895 95.6722 30.1225 97.195C30.1473 98.1593 30.1627 98.9537 30.1618 99.8646C30.1496 100.138 30.1538 100.294 30.1549 100.562C30.154 100.748 30.1562 100.823 30.1558 100.982C30.153 101.068 30.1798 101.236 30.0028 101.24C27.759 101.509 25.6921 101.773 23.6252 102.037C23.6252 102.037 23.6424 102.02 23.5989 101.956C23.4989 101.796 23.426 101.715 23.3366 101.649Z" fill="#B482EF"/>
<path d="M115.093 26.9554C116.227 28.6621 117.361 30.3689 118.396 32.1728C117.793 32.6884 117.259 33.075 116.796 33.5346C116.334 33.9922 116.043 34.7477 115.508 34.983C113.21 35.9933 110.853 36.828 109.637 39.3422C109.351 39.9332 108.687 40.3391 108.081 40.7681C107.271 40.3608 106.575 40.0154 105.881 39.5028C105.627 37.781 105.372 36.2265 105.229 34.6081C106.029 33.5599 106.719 32.5754 107.539 31.5687C109.296 30.1938 110.887 28.795 112.566 27.5129C113.168 27.0528 113.982 26.874 114.7 26.5669C114.7 26.5669 114.678 26.5866 114.735 26.6537C114.892 26.799 114.993 26.8772 115.093 26.9554Z" fill="#78C0F2"/>
<path d="M10.627 91.6581C9.48306 90.0806 8.33908 88.5032 7.29291 86.7165C8.28929 85.7869 9.18787 85.0666 10.298 84.1766C10.2133 83.9888 9.91014 83.3165 9.567 82.5558C10.2979 82.1721 11.1813 81.9957 11.5539 81.4598C12.7477 79.7431 13.7274 77.8775 14.8364 76.0989C16.1016 74.0698 17.4169 72.0725 18.8373 70.1299C19.5046 71.8244 20.045 73.4504 20.4728 75.1447C18.913 77.5889 17.4583 79.96 16.0211 82.3419C14.8485 84.285 13.6838 86.2332 12.5411 88.1942C11.8772 89.3335 11.2634 90.5025 10.627 91.6581Z" fill="#D885DC"/>
<path d="M40.6365 108.952C40.7367 108.537 40.9884 108.117 41.2159 107.684C41.6537 106.852 42.0919 106.019 42.5039 105.174C42.9378 104.283 43.3413 103.378 43.8449 102.291C41.1533 102.014 39.0442 99.6246 36.0755 100.736C38.7511 98.8358 41.5245 97.05 44.3193 95.2986C44.7734 95.0141 45.3218 94.882 45.9135 94.7693C46.5987 94.8164 47.1972 94.7737 47.7956 94.731C47.7861 94.8957 47.7765 95.0604 47.7669 95.2251C48.7212 95.3535 49.6773 95.4702 50.6292 95.6149C51.1466 95.6936 52.0489 95.7337 52.0939 95.9412C52.2099 96.4765 52.0145 97.1217 51.8069 97.6706C51.6841 97.9953 51.2789 98.2016 51.0403 98.4939C50.195 99.5297 49.3667 100.58 48.4719 101.745C47.5502 103.56 46.6885 105.255 45.8268 106.949C44.1436 107.613 42.4603 108.277 40.6365 108.952Z" fill="#959FC0"/>
<path d="M18.7104 70.0612C17.4169 72.0723 16.1016 74.0697 14.8364 76.0987C13.7274 77.8773 12.7477 79.7429 11.5539 81.4596C11.1812 81.9956 10.2979 82.172 9.56699 82.5556C9.91013 83.3164 10.2133 83.9886 10.298 84.1764C9.18786 85.0664 8.28928 85.7868 7.27666 86.5762C6.66401 85.5917 6.16541 84.5381 5.65833 83.339C7.80009 79.3017 9.8858 75.3716 12.1312 71.5362C13.0796 69.9161 14.291 68.4299 15.5364 67.0202C15.9606 66.5401 16.855 66.4805 17.7147 66.3789C18.1668 67.7064 18.4386 68.8838 18.7104 70.0612Z" fill="#E387D6"/>
<path d="M31.3108 32.3804C30.4705 32.3649 29.6302 32.3495 28.7899 32.3341C28.8784 31.2795 28.7728 30.161 29.0911 29.1821C30.1107 26.0469 31.3387 22.9805 32.3675 19.848C32.6274 19.0564 32.6359 18.0689 32.4311 17.2553C31.6945 14.3299 32.0394 13.6649 34.9459 12.9716C35.3151 12.8835 35.6662 12.7186 36.14 12.507C37.6736 12.2752 39.0929 12.1254 40.6836 12.0835C40.855 12.1913 40.8562 12.3513 40.6939 12.3509C39.0491 12.1958 38.264 12.5856 38.0931 14.357C37.5749 19.7294 35.2551 24.5332 32.9158 29.2868C32.2325 30.6752 32.761 30.8334 33.8852 30.9475C33.4036 31.2514 32.9343 31.4262 32.3841 31.6504C32.2019 31.7799 32.1237 31.8784 32.0631 31.9864C32.0576 31.9771 32.0736 31.9915 31.961 32.0039C31.6664 32.1398 31.4844 32.2633 31.2984 32.377C31.2943 32.3672 31.3108 32.3804 31.3108 32.3804Z" fill="#FC82CB"/>
<path d="M82.1497 12.0316C83.0583 12.013 83.9669 11.9944 84.9794 12.1395C85.0256 13.1855 84.8679 14.0749 84.9288 14.9489C85.1098 17.5497 85.3767 20.1444 85.5128 22.8297C84.5737 23.803 83.6798 24.6456 82.9123 25.592C82.5421 26.0484 82.4097 26.7001 82.0042 27.294C77.7398 27.1836 73.6409 27.0426 69.6557 26.8217C71.4099 26.4353 73.0409 25.9708 74.6937 25.8705C76.0967 25.7853 76.823 25.3383 76.956 23.8898C78.0173 23.2394 79.4791 22.7691 79.7486 21.9169C80.5705 19.3185 81.4369 16.5992 80.1751 13.8265C80.0132 13.4706 80.0795 13.0096 80.0418 12.6145C80.84 12.3938 81.4948 12.2127 82.1497 12.0316Z" fill="#A08FF0"/>
<path d="M86.3617 105.849C86.8101 105.126 87.0899 104.131 87.7352 103.726C91.0547 101.642 94.2938 99.2624 97.8945 97.8417C102.049 96.2026 106.539 95.4048 110.911 94.3579C112.006 94.0957 113.449 92.7699 114.285 95.0028C113.636 95.8647 112.962 96.5922 112.081 97.4238C111.795 97.6273 111.715 97.7266 111.634 97.8259C111.634 97.8259 111.627 97.7986 111.56 97.8539C111.413 98.0088 111.334 98.1084 111.255 98.2079C111.255 98.2079 111.251 98.1747 111.092 98.1821C108.468 97.5267 106.128 98.2714 103.848 99.0053C102.179 99.5427 100.665 100.548 99.0249 101.2C96.9866 102.01 94.8232 102.531 92.8534 103.472C92.1429 103.812 91.8366 105.007 91.3459 105.812C91.3459 105.812 91.1856 105.873 90.9217 105.881C89.2258 105.876 87.7937 105.863 86.3617 105.849Z" fill="#CCE173"/>
<path d="M10.639 91.7909C11.2634 90.5024 11.8772 89.3335 12.5411 88.1942C13.6839 86.2332 14.8486 84.285 16.0211 82.3418C17.4583 79.96 18.913 77.5889 20.5649 75.165C20.8877 75.1846 20.9563 75.286 20.9339 75.5428C21.052 76.6239 21.2116 77.5836 21.3699 78.6911C21.6163 79.8957 21.8638 80.9524 21.9842 82.0409C21.1207 83.0766 20.3453 84.0543 19.6565 85.0903C18.4869 86.8492 17.3908 88.6574 16.2281 90.4211C15.2756 91.8661 14.2713 93.2764 13.2899 94.702C12.4103 93.7759 11.5306 92.8499 10.639 91.7909Z" fill="#CC83E3"/>
<path d="M62.4764 12.0039C62.6535 12.032 62.6536 12.1895 62.4908 12.2685C60.4833 12.0916 59.9425 12.9413 59.9229 14.7418C59.9048 16.4098 59.443 18.0779 59.1263 19.7363C58.6692 22.1306 58.1667 24.5162 57.5063 26.9336C53.3733 26.9419 49.4176 26.9222 45.5547 26.8265C45.959 26.6856 46.2704 26.6208 46.7495 26.5632C47.6997 26.5698 48.4824 26.5692 49.4188 26.5674C50.1932 26.4435 50.8088 26.2664 51.4353 26.2085C53.1295 26.0519 54.0752 25.2039 54.238 23.4537C54.4615 21.0519 54.8963 18.6609 54.973 16.2567C55.0978 12.3408 55.0065 12.3379 51.0202 12.3542C50.2011 12.348 49.5458 12.3437 48.8895 12.262C48.8886 12.1845 48.8874 12.0296 48.8874 12.0296C53.3581 12.0117 57.8287 11.9938 62.4764 12.0039Z" fill="#D17FDE"/>
<path d="M108.197 40.83C108.687 40.339 109.351 39.9332 109.637 39.3422C110.853 36.8279 113.21 35.9932 115.508 34.9829C116.043 34.7476 116.334 33.9921 116.796 33.5345C117.259 33.0749 117.793 32.6883 118.413 32.3135C119.031 33.4129 119.532 34.4686 119.927 35.6983C119.563 36.6309 119.304 37.3894 119.023 38.2112C118.551 38.7702 117.969 39.4549 117.391 40.1428C116.23 41.525 115.071 42.909 113.789 44.2345C112.893 44.081 112.116 43.886 111.346 43.9133C110.288 43.9507 109.236 44.1563 108.18 44.1169C108.185 42.9059 108.191 41.868 108.197 40.83Z" fill="#66CCED"/>
<path d="M124.647 54.6445C124.763 56.6722 124.889 58.6994 124.988 60.7279C125.021 61.4198 124.986 62.1151 124.876 63.1169C124.72 63.738 124.606 64.0569 124.633 64.3628C124.784 66.0372 124.434 66.5343 122.441 66.4112C120.341 66.2816 118.153 67.2079 116.041 67.8084C114.791 68.164 113.604 68.7599 112.407 69.2879C111.186 69.8262 109.949 70.3472 108.789 71.0012C107.902 71.5014 107.163 72.0652 107.025 70.2865C107.451 67.6865 107.86 65.2404 108.344 62.9236C108.518 64.1564 108.616 65.2598 108.689 66.083C113.17 64.8331 117.479 63.5235 121.845 62.4528C124.578 61.7827 124.617 61.9441 124.617 59.1289C124.495 57.663 124.372 56.3688 124.248 54.9806C124.248 54.8867 124.249 54.6988 124.349 54.6867C124.515 54.6645 124.581 54.6545 124.647 54.6445Z" fill="#6BD2A9"/>
<path d="M100.139 26.97C99.6588 25.798 99.265 24.5795 98.676 23.4655C97.8794 21.9588 97.4591 20.5348 98.6221 19.0243C98.7907 18.8053 98.9352 18.301 98.8189 18.1662C96.9186 15.964 99.0678 15.9575 100.399 15.4214C103.442 17.1274 106.341 18.8428 109.145 20.6787C108.527 20.5891 108.012 20.2356 107.482 20.2116C107.004 20.19 106.206 20.4069 106.077 20.731C105.522 22.1284 105.161 23.6039 104.616 25.1152C103.048 25.7763 101.594 26.3732 100.139 26.97Z" fill="#8BAFF5"/>
<path d="M124.249 54.6984C124.249 54.6984 124.248 54.8864 124.092 54.9711C122.529 55.12 121.109 55.0884 119.718 55.273C118.061 55.4929 116.434 55.9371 114.781 56.2104C113.548 56.4143 112.298 56.5306 111.051 56.6288C110.348 56.6842 109.636 56.6242 108.832 56.6178C108.736 56.6194 108.546 56.6339 108.407 56.5527C108.137 54.9824 108.005 53.4932 108.022 51.9991C109.575 51.6085 110.98 51.2229 112.505 50.8958C113.838 51.3954 115.167 52.3959 116.239 52.1683C118.972 51.588 121.955 51.4368 124.156 49.2891C124.183 49.8153 124.21 50.3415 124.24 51.2011C124.244 52.5892 124.247 53.6438 124.249 54.6984Z" fill="#59D3CC"/>
<path d="M107.009 70.4404C107.163 72.0652 107.902 71.5015 108.789 71.0012C109.949 70.3472 111.186 69.8262 112.407 69.2879C113.604 68.7599 114.791 68.164 116.041 67.8084C118.153 67.2079 120.341 66.2816 122.441 66.4112C124.434 66.5343 124.784 66.0372 124.633 64.3628C124.606 64.0569 124.72 63.738 124.848 63.2964C124.795 65.9408 124.664 68.7139 124.37 71.4383C123.68 70.9092 123.147 70.0234 122.625 70.03C121.393 70.0455 120.121 70.3586 118.947 70.7801C116.22 71.7589 113.542 72.8729 110.739 73.8415C109.719 73.8903 108.7 73.8186 107.907 74.2109C105.965 75.1728 106.007 75.2589 105.873 72.9888C106.261 72.0462 106.635 71.2433 107.009 70.4404Z" fill="#75D49F"/>
<path d="M13.2936 94.7189C14.2713 93.2763 15.2756 91.866 16.2281 90.4211C17.3907 88.6574 18.4869 86.8492 19.6564 85.0903C20.3453 84.0543 21.1207 83.0765 22.0109 82.1914C22.2756 84.3897 22.3865 86.4692 22.4975 88.5487C21.9853 89.5703 21.4082 90.5649 20.9752 91.6194C20.1967 93.5152 19.4864 95.4403 18.7993 97.3717C18.7102 97.6221 18.928 97.983 19.0212 98.4313C17.332 97.4185 15.6252 96.267 13.751 95.0002C13.5115 94.8152 13.4275 94.7659 13.3318 94.737C13.3318 94.737 13.2973 94.7359 13.2936 94.7189Z" fill="#C184EA"/>
<path d="M104.73 25.0508C105.161 23.6037 105.522 22.1282 106.077 20.7308C106.206 20.4067 107.004 20.1898 107.482 20.2114C108.012 20.2354 108.527 20.5889 109.194 20.8012C111.116 22.6341 112.892 24.4647 114.684 26.4311C113.983 26.874 113.168 27.0527 112.566 27.5128C110.887 28.7949 109.296 30.1937 107.449 31.4619C106.395 29.2684 105.562 27.1596 104.73 25.0508Z" fill="#83BDF6"/>
<path d="M45.9768 106.921C46.6885 105.255 47.5502 103.56 48.6318 101.748C51.0363 101.633 52.9594 101.087 54.4811 99.335C54.9721 98.7698 55.8446 98.5401 56.6798 98.1821C57.3604 98.3216 57.9041 98.4359 58.4473 98.6987C58.8816 99.9043 56.9151 100.963 58.4247 102.153C58.0148 102.936 57.4795 103.546 57.2939 104.249C57.1696 104.719 57.5414 105.323 57.6917 105.949C57.6922 106.032 57.6954 106.196 57.6954 106.196C55.3604 106.215 53.0218 106.161 50.6918 106.279C49.1638 106.356 47.648 106.68 45.9768 106.921Z" fill="#89B5AB"/>
<path d="M113.91 44.2922C115.071 42.9089 116.23 41.525 117.391 40.1428C117.969 39.4549 118.551 38.7702 119.023 38.2112C119.304 37.3894 119.563 36.6309 119.949 35.8428C120.953 38.2676 121.829 40.7219 122.71 43.4975C122.39 44.8105 122.205 46.5752 121.716 46.6647C119.157 47.134 116.52 47.1791 113.91 47.2006C113.91 46.1171 113.91 45.2046 113.91 44.2922Z" fill="#59D4E8"/>
<path d="M86.185 105.855C87.7937 105.863 89.2258 105.877 90.8373 105.896C90.5042 106.025 89.9923 106.253 89.4791 106.255C85.1213 106.279 80.7633 106.261 76.2164 106.148C76.0275 106.041 76.0095 105.876 76.0267 105.736C77.5511 104.52 78.949 103.221 80.5856 102.408C85.6407 99.8972 90.7763 97.5493 95.9028 95.1868C97.7929 94.3157 99.7447 93.5799 101.809 92.7599C103.386 92.2402 104.823 91.7432 106.26 91.2461C106.031 91.6092 105.888 92.1438 105.561 92.3094C101.161 94.5357 96.7519 96.7459 92.3099 98.8859C89.2251 100.372 86.0572 101.685 82.9907 103.206C82.1771 103.61 81.6009 104.498 80.9158 105.164C81.0051 105.396 81.0945 105.629 81.1839 105.862C82.792 105.862 84.4001 105.862 86.185 105.855Z" fill="#B6DC7B"/>
<path d="M48.8904 12.3391C49.5458 12.3434 50.2011 12.3477 51.0194 12.5241C50.5433 17.3203 49.9041 21.9443 49.265 26.5683C48.4824 26.5689 47.6997 26.5694 46.7523 26.3956C46.5474 25.5216 46.4674 24.8217 46.4744 24.1226C46.5011 21.4631 46.2187 18.7435 46.6767 16.1584C47.4244 11.9378 48.0638 12.3633 43.3655 12.3547C42.4175 12.3527 41.6368 12.352 40.8562 12.3514C40.8562 12.3514 40.855 12.1914 40.8546 12.1114C43.0353 12.0127 45.2164 11.994 47.6707 12.0786C48.2594 12.2344 48.5749 12.2868 48.8904 12.3391Z" fill="#E77BDA"/>
<path d="M85.61 22.742C85.3767 20.1449 85.1098 17.5501 84.9288 14.9493C84.8679 14.0753 85.0256 13.186 85.1477 12.1665C86.8183 12.1649 88.4247 12.3004 90.1192 12.5736C90.6441 14.5573 91.1206 16.3952 91.4999 18.2531C91.6735 19.1035 91.6558 19.9934 91.5949 21.0552C89.7642 22.738 88.1124 24.4242 85.61 22.742Z" fill="#9998F2"/>
<path d="M91.5117 105.84C91.8366 105.008 92.143 103.812 92.8534 103.473C94.8232 102.531 96.9866 102.011 99.025 101.2C100.665 100.548 102.179 99.5431 103.848 99.0057C106.128 98.2718 108.468 97.527 111.097 98.1994C109.474 99.4161 107.776 100.79 105.884 101.797C101.452 104.155 96.7211 105.6 91.5117 105.84Z" fill="#D8E373"/>
<path d="M106.402 91.2219C104.823 91.743 103.386 92.2401 101.832 92.6292C102.044 92.1678 102.339 91.774 102.707 91.4686C103.748 90.6047 104.819 89.7769 106.012 88.9137C107.354 88.2037 108.5 87.3581 109.78 86.8568C113.073 85.5671 116.262 83.2015 120.046 85.6088C120.053 86.0661 120.059 86.3708 120.065 86.6756C119.689 87.4742 119.314 88.2729 118.881 89.1964C115.518 89.6895 112.207 90.0259 108.908 90.4491C108.102 90.5525 107.332 90.9406 106.402 91.2219Z" fill="#AFDF79"/>
<path d="M81.9737 12.0031C81.4949 12.2128 80.84 12.3939 80.0418 12.6146C80.0795 13.0097 80.0132 13.4707 80.1751 13.8266C81.4369 16.5993 80.5705 19.3186 79.7486 21.917C79.4791 22.7692 78.0173 23.2395 76.863 23.7803C76.4197 22.8147 76.2075 21.9547 76.0098 21.0914C75.3284 18.1153 75.6583 14.8298 73.3635 12.348C73.3635 12.348 73.3643 12.1919 73.3648 12.1138C76.176 12.0153 78.9868 11.9949 81.9737 12.0031Z" fill="#A98AED"/>
<path d="M76.0094 105.876C76.0094 105.876 76.0275 106.041 76.0391 106.124C70.0499 106.22 64.0491 106.234 57.8719 106.222C57.6954 106.196 57.6922 106.032 57.858 105.95C58.9864 105.688 60.1342 105.783 60.8769 105.276C63.0445 103.798 64.8261 101.504 67.1683 100.581C71.5037 98.8722 76.1301 97.9111 80.7371 96.7271C81.2816 96.8838 81.7244 96.952 82.1427 97.1511C81.6236 97.8347 81.129 98.3875 80.4772 98.9412C75.0922 100.555 69.4283 101.098 65.1067 105.273C68.7726 106.007 72.399 105.815 76.0094 105.876Z" fill="#96D18E"/>
<path d="M113.91 47.3716C116.52 47.1791 119.157 47.1341 121.716 46.6648C122.205 46.5752 122.39 44.8106 122.719 43.6523C123.224 45.3185 123.723 47.151 124.189 49.1364C121.955 51.437 118.972 51.5882 116.239 52.1684C115.167 52.396 113.838 51.3956 112.525 50.7578C112.92 49.4979 113.415 48.4348 113.91 47.3716Z" fill="#56D2DA"/>
<path d="M110.844 73.932C113.542 72.8728 116.22 71.7587 118.947 70.78C120.121 70.3584 121.393 70.0453 122.625 70.0298C123.147 70.0233 123.68 70.9091 124.233 71.527C124.221 72.3721 124.184 73.0796 123.891 73.8338C123.057 73.7479 122.436 73.4077 121.906 73.5165C118.593 74.1966 115.105 74.3503 112.284 76.6236C111.93 76.9091 111.331 76.8867 110.7 77.007C110.09 76.9405 109.624 76.874 108.849 76.7634C109.627 75.6588 110.236 74.7954 110.844 73.932Z" fill="#7DD594"/>
<path d="M110.845 77.0067C111.331 76.8864 111.93 76.9088 112.284 76.6233C115.105 74.35 118.593 74.1962 121.906 73.5162C122.436 73.4074 123.057 73.7476 123.763 73.9136C123.751 74.8608 123.611 75.7745 123.337 76.8611C123.036 77.153 122.87 77.2719 122.526 77.3907C118.262 77.2516 114.285 77.4763 110.867 80.213C110.292 80.6738 109.332 80.6493 108.571 80.7148C109.343 79.3893 110.094 78.198 110.845 77.0067Z" fill="#89D88A"/>
<path d="M30.1504 105.868C30.491 106.438 30.8316 107.008 31.1658 107.803C30.6938 108.976 30.2281 109.922 29.6286 110.893C27.6954 111.413 25.8959 111.908 24.0965 112.403C23.951 110.599 23.8055 108.794 23.7913 106.888C24.6015 106.798 25.2987 106.915 25.9556 106.8C27.3649 106.553 28.7534 106.186 30.1504 105.868Z" fill="#D885DC"/>
<path d="M30.1532 105.723C28.7534 106.186 27.3649 106.552 25.9556 106.799C25.2987 106.914 24.6015 106.797 23.819 106.718C23.695 105.23 23.6745 103.809 23.6396 102.213C25.6921 101.773 27.759 101.509 30.1073 101.291C30.5508 101.947 30.7128 102.557 30.8748 103.168C30.6353 103.971 30.3957 104.774 30.1532 105.723Z" fill="#CC83E3"/>
<path d="M24.0686 112.557C25.896 111.908 27.6954 111.413 29.7158 110.992C30.3091 111.761 30.6814 112.455 31.0256 113.097C30.6043 113.781 30.1947 114.447 29.785 115.113C29.785 115.113 29.7788 115.122 29.7024 115.168C29.535 115.283 29.4689 115.372 29.4275 115.479C26.2676 116.758 24.1022 115.645 24.0686 112.557Z" fill="#EB89D1"/>
<path d="M29.9207 115.101C30.1947 114.447 30.6043 113.781 31.0255 113.097C30.6814 112.456 30.309 111.761 29.8495 110.968C30.2281 109.922 30.6938 108.976 31.2235 107.916C31.8229 108.204 32.6604 108.504 32.8313 109.025C33.1954 110.136 33.2137 111.362 33.2886 112.633C32.1544 113.513 31.1054 114.301 29.9207 115.101Z" fill="#E387D6"/>
<path d="M122.704 77.3911C122.87 77.2722 123.036 77.1533 123.305 77.0146C122.762 79.2746 122.116 81.5542 121.327 83.8883C121.185 83.9427 121.144 83.9142 121.153 83.7607C121.296 82.8152 121.429 82.0232 121.623 81.1057C122.023 79.7838 122.363 78.5875 122.704 77.3911Z" fill="#96D18E"/>
<path d="M124.349 54.6868C124.247 53.6443 124.245 52.5897 124.247 51.3594C124.376 52.2268 124.5 53.2699 124.635 54.4788C124.581 54.6547 124.515 54.6647 124.349 54.6868Z" fill="#5DD3C1"/>
<path d="M120.185 86.6108C120.059 86.371 120.053 86.0663 120.097 85.5148C120.353 85.0723 120.559 84.8765 120.784 84.6963C120.804 84.7119 120.842 84.7445 120.842 84.7445C120.663 85.345 120.484 85.9455 120.185 86.6108Z" fill="#96D18E"/>
<path d="M38.7128 110.102C38.9123 109.81 39.232 109.509 39.6293 109.289C39.4155 109.611 39.1242 109.852 38.7128 110.102Z" fill="#959FC0"/>
<path d="M48.8895 12.2617C48.5749 12.2868 48.2594 12.2344 47.8486 12.1073C48.0376 12.0131 48.3219 11.9936 48.7468 12.0017C48.8874 12.0292 48.8885 12.1842 48.8895 12.2617Z" fill="#DD7CDD"/>
<path d="M19.0847 98.6819C19.2473 98.6428 19.4538 98.7142 19.7334 98.8695C19.5805 98.8998 19.3545 98.8461 19.0847 98.6819Z" fill="#C184EA"/>
<path d="M121.203 83.9586C121.167 84.1986 121.111 84.4226 120.949 84.6955C120.843 84.7444 120.804 84.7118 120.808 84.5891C120.923 84.2823 121.034 84.0982 121.145 83.9141C121.145 83.9141 121.185 83.9426 121.203 83.9586Z" fill="#96D18E"/>
<path d="M111.351 98.1765C111.334 98.1087 111.413 98.0091 111.573 97.8579C111.585 97.9191 111.516 98.0319 111.351 98.1765Z" fill="#D8E373"/>
<path d="M23.322 101.746C23.426 101.715 23.499 101.796 23.5918 101.966C23.5213 101.974 23.4144 101.908 23.322 101.746Z" fill="#CC83E3"/>
<path d="M29.5169 115.46C29.4689 115.372 29.535 115.283 29.6979 115.17C29.7735 115.263 29.7189 115.368 29.5169 115.46Z" fill="#E387D6"/>
<path d="M111.73 97.7942C111.714 97.727 111.795 97.6277 111.956 97.478C111.967 97.5392 111.897 97.6507 111.73 97.7942Z" fill="#D8E373"/>
<path d="M13.3511 94.824C13.4276 94.7659 13.5115 94.8152 13.6296 94.9425C13.6754 95.0001 13.5009 95.0319 13.5009 95.0319C13.5009 95.0319 13.3703 94.9112 13.3511 94.824Z" fill="#CC83E3"/>
<path d="M115.059 26.8591C114.993 26.8772 114.892 26.799 114.74 26.6397C114.801 26.6268 114.913 26.6948 115.059 26.8591Z" fill="#83BDF6"/>
<path d="M90.9573 30.448C88.1166 29.4342 85.2759 28.4204 82.3025 27.335C82.4098 26.7002 82.5422 26.0485 82.9124 25.5921C83.6799 24.6458 84.5737 23.8031 85.5128 22.8298C88.1125 24.4239 89.7643 22.7377 91.5947 21.2227C92.3318 22.0697 93.244 22.8634 93.4786 23.8246C93.8833 25.482 93.8665 27.2436 93.896 29.1788C92.8294 29.7468 91.8934 30.0974 90.9573 30.448Z" fill="#8D97F1"/>
<path d="M104.616 25.1152C105.562 27.1598 106.395 29.2686 107.318 31.4842C106.719 32.5755 106.029 33.56 105.109 34.5518C103.682 33.8277 102.486 33.0961 101.169 32.2927C100.744 31.112 100.44 30.0033 100.135 28.8946C100.136 28.3601 100.137 27.8256 100.139 27.1305C101.594 26.3732 103.048 25.7763 104.616 25.1152Z" fill="#81B1F2"/>
<path d="M99.9586 28.895C100.44 30.0032 100.744 31.1119 101.166 32.4431C100.94 33.0787 100.665 33.7415 100.242 33.8587C98.8723 34.2371 98.7983 34.8182 99.6758 35.7937C99.8781 36.0186 99.9926 36.3236 100.093 36.6708C99.9407 36.8328 99.8436 36.9156 99.7464 36.9984C96.855 34.8968 93.9636 32.7953 91.0148 30.5709C91.8933 30.0976 92.8294 29.747 93.8943 29.3374C95.9427 29.1508 97.8623 29.0232 99.9586 28.895Z" fill="#81A0E8"/>
<path d="M61.1412 26.7631C60.0803 26.9263 59.033 26.9451 57.8347 26.9346C58.1667 24.5159 58.6692 22.1304 59.1263 19.7361C59.443 18.0777 59.9048 16.4095 59.9229 14.7415C59.9425 12.9411 60.4833 12.0913 62.4909 12.3471C64.4301 12.1134 65.2413 12.5579 65.5316 14.6838C66.0038 18.1404 64.7306 21.2221 64.2 24.4539C64.1117 24.9915 63.0682 25.3821 62.4487 25.8155C62.0333 26.1061 61.5872 26.3526 61.1412 26.7631Z" fill="#C780E4"/>
<path d="M69.6557 26.8219C68.7598 26.9218 67.9777 26.9418 67.0301 26.9329C66.6686 26.5999 66.4727 26.2959 66.3362 26.0843C67.3528 25.8005 68.8149 25.8429 69.4482 25.1349C71.7436 22.5689 73.1495 19.5825 72.4725 15.9228C72.2525 14.7337 71.4723 13.3161 73.2122 12.3618C75.6583 14.8298 75.3284 18.1153 76.0098 21.0914C76.2075 21.9548 76.4196 22.8147 76.7181 23.7858C76.823 25.3384 76.0967 25.7854 74.6937 25.8706C73.0409 25.971 71.4099 26.4354 69.6557 26.8219Z" fill="#AC83EB"/>
<path d="M34.7844 101.58C34.7742 101.501 34.8429 101.392 35.0103 101.3C35.0422 101.411 34.9603 101.488 34.7844 101.58Z" fill="#959FC0"/>
<path d="M30.1131 97.0255C26.7895 95.6725 25.5079 92.9575 25.1844 89.5857C25.0995 88.7007 24.9327 87.8237 24.8182 86.6443C24.8182 85.4145 24.8037 84.4834 24.918 83.5884C26.0339 84.9686 26.1694 87.0722 28.3512 87.3728C28.442 87.3854 28.4911 87.8154 28.5336 88.0556C29.0629 91.0451 29.5874 94.0354 30.1131 97.0255Z" fill="#AC83EB"/>
<path d="M30.1225 97.1949C29.5874 94.035 29.0629 91.0447 28.5336 88.0552C28.4911 87.815 28.442 87.385 28.3512 87.3724C26.1694 87.0718 26.0339 84.9682 24.8073 83.5187C23.5022 81.7898 22.4367 80.1664 21.3711 78.5429C21.2116 77.5832 21.052 76.6236 20.934 75.5425C22.7811 79.487 26.3629 82.1564 28.8744 85.6552C29.7396 86.8605 30.3293 88.4959 30.4322 89.9779C30.6529 93.1597 30.4752 96.3695 30.3194 99.658C30.1628 98.9536 30.1473 98.1591 30.1225 97.1949Z" fill="#9775D6"/>
<path d="M21.3699 78.6909C22.4366 80.1665 23.5022 81.7899 24.6784 83.4827C24.8036 84.4831 24.8182 85.4143 24.8093 86.4855C24.1061 87.2465 23.4264 87.8674 22.6221 88.5185C22.3866 86.4691 22.2756 84.3896 22.1379 82.1595C21.8637 80.9523 21.6162 79.8955 21.3699 78.6909Z" fill="#B883E8"/>
<path d="M30.155 100.562C30.2218 100.577 30.2854 100.703 30.2538 100.863C30.1563 100.823 30.1541 100.749 30.155 100.562Z" fill="#CC83E3"/>
<path d="M100.147 36.5917C99.9925 36.3236 99.8781 36.0187 99.6757 35.7938C98.7982 34.8183 98.8723 34.2372 100.241 33.8587C100.665 33.7415 100.94 33.0788 101.286 32.5151C102.486 33.096 103.682 33.8276 104.998 34.6155C105.372 36.2265 105.627 37.781 105.707 39.5048C104.368 39.6773 103.204 39.6806 102.04 39.6839C102.04 39.6839 102.052 39.6742 102.064 39.5633C101.684 39.0164 101.292 38.5803 100.9 38.1442C100.789 38.0784 100.678 38.0126 100.539 37.7235C100.39 37.1974 100.269 36.8946 100.147 36.5917Z" fill="#76AAE7"/>
<path d="M102.055 39.8198C103.204 39.6804 104.368 39.6771 105.706 39.6719C106.575 40.0153 107.271 40.3606 108.081 40.768C108.191 41.8679 108.185 42.9059 108.176 44.2641C107.659 45.649 107.146 46.7134 106.633 47.7779C105.112 45.1706 103.591 42.5632 102.055 39.8198Z" fill="#6CAED9"/>
<path d="M45.9135 94.7692C47.3692 92.9545 49.3476 92.1108 51.5995 92.0437C54.3994 91.9603 57.204 92.0314 60.1465 92.1826C59.0385 94.2719 57.7906 96.2144 56.5427 98.1569C55.8447 98.54 54.9721 98.7697 54.4811 99.335C52.9594 101.087 51.0363 101.633 48.6919 101.627C49.3667 100.58 50.195 99.5297 51.0403 98.4939C51.2789 98.2016 51.6841 97.9952 51.8069 97.6706C52.0145 97.1216 52.2099 96.4764 52.0939 95.9412C52.0489 95.7336 51.1466 95.6935 50.6292 95.6149C49.6773 95.4702 48.7212 95.3535 47.7669 95.2251C47.7765 95.0604 47.7861 94.8956 47.7956 94.7309C47.1972 94.7737 46.5987 94.8164 45.9135 94.7692Z" fill="#7BA4B7"/>
<path d="M42.7685 27.2834C41.8541 27.5638 40.9196 27.7915 40.0294 28.1353C38.0183 28.9121 36.029 29.7464 33.9642 30.6878C32.7609 30.8333 32.2325 30.6752 32.9157 29.2867C35.2551 24.5332 37.5748 19.7294 38.0931 14.357C38.264 12.5855 39.0491 12.1957 40.6939 12.3509C41.6368 12.3519 42.4175 12.3525 43.3653 12.5292C43.2365 14.9524 42.7153 17.1985 42.7036 19.4473C42.69 22.0549 40.7909 24.7023 42.7685 27.2834Z" fill="#FB77D2"/>
<path d="M31.961 32.0039C31.8959 32.1119 31.7183 32.2323 31.4215 32.3698C31.4844 32.2633 31.6665 32.1398 31.961 32.0039Z" fill="#FB8CC5"/>
<path d="M32.3841 31.6504C32.3971 31.7129 32.3293 31.825 32.165 31.9663C32.1237 31.8784 32.2019 31.7798 32.3841 31.6504Z" fill="#FB8CC5"/>
<path d="M49.4188 26.5673C49.9042 21.9445 50.5433 17.3206 51.1832 12.5263C55.0065 12.3378 55.0978 12.3407 54.973 16.2565C54.8963 18.6608 54.4615 21.0518 54.2381 23.4536C54.0752 25.2038 53.1295 26.0517 51.4353 26.2084C50.8088 26.2663 50.1932 26.4434 49.4188 26.5673Z" fill="#DD7CDD"/>
<path d="M42.9216 27.3122C40.7909 24.7023 42.6901 22.0549 42.7036 19.4473C42.7153 17.1985 43.2365 14.9524 43.5326 12.5305C48.0638 12.3631 47.4244 11.9376 46.6767 16.1582C46.2187 18.7433 46.5011 21.463 46.4744 24.1224C46.4674 24.8215 46.5475 25.5214 46.5847 26.3882C46.2704 26.6203 45.959 26.6851 45.5547 26.8259C44.6661 27.0483 43.8704 27.1946 42.9216 27.3122Z" fill="#F177D7"/>
<path d="M106.643 47.9019C107.146 46.7135 107.659 45.649 108.177 44.4371C109.236 44.1563 110.288 43.9506 111.346 43.9132C112.116 43.886 112.893 44.0809 113.789 44.2345C113.91 45.2046 113.91 46.1171 113.91 47.2005C113.415 48.4347 112.92 49.4979 112.405 50.6992C110.98 51.223 109.575 51.6086 108.022 51.9992C107.853 51.9431 107.833 51.882 107.787 51.6165C107.665 51.2208 107.569 51.0295 107.472 50.8383C107.454 50.7729 107.436 50.7075 107.419 50.4022C107.28 49.7484 107.141 49.3345 107.001 48.9206C107.001 48.9206 107.024 48.9121 106.986 48.8414C106.891 48.6692 106.815 48.5849 106.721 48.5177C106.698 48.3537 106.675 48.1898 106.643 47.9019Z" fill="#5EC3DF"/>
<path d="M108.344 62.9235C108.367 60.8584 108.465 58.9228 108.555 56.8106C108.546 56.6341 108.736 56.6196 108.834 56.7804C109.296 61.5305 109.753 61.5934 114.257 60.5232C114.441 60.4793 114.618 60.4034 114.801 60.3514C118.013 59.4366 121.209 58.3714 124.616 59.3005C124.617 61.944 124.578 61.7826 121.845 62.4526C117.479 63.5234 113.17 64.833 108.689 66.0828C108.616 65.2597 108.518 64.1563 108.344 62.9235Z" fill="#64D2B6"/>
<path d="M124.617 59.129C121.209 58.3715 118.013 59.4368 114.801 60.3515C114.618 60.4036 114.441 60.4795 114.257 60.5233C109.753 61.5935 109.296 61.5307 108.93 56.779C109.636 56.6246 110.348 56.6846 111.051 56.6292C112.298 56.5309 113.548 56.4147 114.781 56.2107C116.434 55.9374 118.061 55.4932 119.718 55.2733C121.109 55.0888 122.529 55.1203 124.092 55.0654C124.372 56.3688 124.495 57.6631 124.617 59.129Z" fill="#5DD3C1"/>
<path d="M102.035 79.6532C102.161 79.4788 102.288 79.3043 102.52 78.9698C102.707 78.7223 102.765 78.6214 102.799 78.507C102.799 78.507 102.806 78.5333 102.877 78.4817C103.027 78.3271 103.107 78.224 103.186 78.1209C103.186 78.1209 103.187 78.1504 103.263 78.0774C103.412 77.7893 103.486 77.5741 103.559 77.3589C103.559 77.3589 103.575 77.3829 103.645 77.3289C103.794 77.1708 103.873 77.0668 103.952 76.9629C104.508 75.7275 105.064 74.492 105.739 73.1924C106.007 75.2586 105.965 75.1725 107.907 74.2106C108.7 73.8183 109.719 73.89 110.739 73.8412C110.236 74.7952 109.627 75.6586 108.849 76.7633C109.624 76.8739 110.09 76.9404 110.7 77.0069C110.094 78.1982 109.343 79.3895 108.573 80.7168C108.553 80.8527 108.549 80.851 108.409 80.8557C107.5 81.281 106.684 81.6355 105.969 82.1349C103.975 83.5255 102.075 85.0569 100.043 86.3839C97.1412 88.278 94.2796 90.307 91.1692 91.7844C87.9304 93.3227 84.4163 94.2741 80.8666 95.5083C79.1554 95.5162 77.6001 95.4978 76.1625 95.385C77.4445 95.053 78.6489 94.935 79.765 94.5543C82.5455 93.606 85.2921 92.5552 88.038 91.5073C88.8051 91.2146 89.5649 90.8563 90.2545 90.4125C92.7985 88.7752 95.43 87.2391 97.7833 85.3549C98.8592 84.4934 99.3643 82.9103 100.128 81.6545C100.128 81.6545 100.127 81.6044 100.221 81.5583C100.4 81.4385 100.462 81.3487 100.502 81.2427C100.502 81.2427 100.5 81.222 100.587 81.1695C100.769 81.0352 100.841 80.9362 100.889 80.8199C100.889 80.8199 100.897 80.8459 100.969 80.7928C101.118 80.6367 101.196 80.5339 101.274 80.431C101.274 80.431 101.277 80.4583 101.347 80.4074C101.497 80.2543 101.576 80.152 101.655 80.0498C101.655 80.0498 101.662 80.0757 101.732 80.0213C101.88 79.8623 101.957 79.7577 102.035 79.6532Z" fill="#80C48B"/>
<path d="M76.0447 95.4795C77.6 95.4979 79.1554 95.5163 80.8488 95.6297C80.8697 96.0293 80.7525 96.3338 80.6353 96.6384C76.1301 97.9109 71.5037 98.872 67.1683 100.581C64.8261 101.504 63.0445 103.798 60.8769 105.276C60.1341 105.783 58.9864 105.688 57.8574 105.868C57.5414 105.323 57.1696 104.72 57.2939 104.249C57.4795 103.546 58.0148 102.936 58.575 102.153C60.1942 101.424 61.6743 100.901 63.0766 100.216C64.9816 99.2863 66.8222 98.2237 68.6998 97.236C69.6071 96.7587 70.5356 96.3225 71.6201 95.8663C73.2054 95.7365 74.625 95.608 76.0447 95.4795Z" fill="#86C995"/>
<path d="M56.6797 98.1821C57.7906 96.2145 59.0385 94.272 60.3239 92.2096C62.9205 92.0701 65.4796 92.0506 68.1266 92.1481C67.5925 92.9448 66.9706 93.6244 66.3076 94.3489C66.4752 94.8119 66.6638 95.3329 66.7069 95.86C63.8568 96.7608 61.1522 97.6555 58.4477 98.5502C57.9041 98.4359 57.3604 98.3216 56.6797 98.1821Z" fill="#6DA8AC"/>
<path d="M58.4473 98.6988C61.1523 97.6557 63.8568 96.761 66.8844 95.8629C68.6231 95.8622 70.0389 95.865 71.4546 95.8677C70.5357 96.3225 69.6071 96.7588 68.6999 97.236C66.8223 98.2238 64.9816 99.2863 63.0766 100.216C61.6744 100.901 60.1942 101.424 58.5985 102.019C56.9151 100.963 58.8816 99.9045 58.4473 98.6988Z" fill="#83C09F"/>
<path d="M76.0267 105.736C72.399 105.815 68.7726 106.007 65.1067 105.273C69.4283 101.098 75.0922 100.554 80.6261 98.916C90.029 97.2664 97.6522 92.5043 105.165 87.5073C105.437 88.0574 105.657 88.4962 105.877 88.935C104.819 89.777 103.748 90.6047 102.707 91.4686C102.339 91.774 102.044 92.1678 101.692 92.6518C99.7447 93.5799 97.7929 94.3156 95.9027 95.1867C90.7763 97.5492 85.6406 99.8971 80.5856 102.408C78.949 103.221 77.5511 104.52 76.0267 105.736Z" fill="#A7D57E"/>
<path d="M106.012 88.9138C105.657 88.4963 105.437 88.0574 105.232 87.3962C106.104 86.5353 106.912 85.8109 107.829 85.2744C110.531 83.6926 112.88 81.3538 116.205 81.0708C117.084 80.996 118.333 81.6465 118.813 81.2427C119.889 80.3362 120.659 80.9789 121.563 81.2312C121.429 82.0232 121.296 82.8152 121.153 83.7607C121.034 84.0983 120.923 84.2824 120.788 84.5736C120.559 84.8765 120.353 85.0723 120.096 85.3622C116.262 83.2016 113.072 85.5672 109.78 86.857C108.5 87.3582 107.354 88.2038 106.012 88.9138Z" fill="#A1DD7C"/>
<path d="M121.623 81.1057C120.659 80.9789 119.889 80.3362 118.813 81.2427C118.333 81.6465 117.084 80.996 116.205 81.0708C112.88 81.3538 110.531 83.6926 107.829 85.2744C106.912 85.8109 106.104 86.5353 105.18 87.285C97.6522 92.5043 90.0289 97.2664 80.7833 98.9151C81.129 98.3873 81.6235 97.8344 82.3003 97.1501C83.2866 96.8653 84.1581 96.8628 84.8837 96.5342C89.6436 94.3792 94.8053 93.0506 98.9088 89.5366C101.792 87.0676 104.778 84.7205 107.68 82.2732C108.082 81.9341 108.265 81.3316 108.549 80.8511C108.549 80.8511 108.553 80.8527 108.552 80.851C109.332 80.6496 110.292 80.6741 110.867 80.2133C114.285 77.4766 118.262 77.2519 122.526 77.391C122.363 78.5875 122.023 79.7838 121.623 81.1057Z" fill="#96D583"/>
<path d="M108.409 80.856C108.265 81.3318 108.082 81.9343 107.68 82.2733C104.778 84.7206 101.792 87.0677 98.9088 89.5367C94.8053 93.0507 89.6436 94.3793 84.8837 96.5344C84.1581 96.863 83.2866 96.8654 82.3248 97.0195C81.7244 96.952 81.2816 96.8837 80.7371 96.727C80.7525 96.334 80.8697 96.0294 81.0047 95.6036C84.4162 94.2743 87.9304 93.323 91.1692 91.7846C94.2796 90.3073 97.1411 88.2783 100.043 86.3841C102.075 85.0571 103.975 83.5257 105.969 82.1351C106.684 81.6358 107.5 81.2813 108.409 80.856Z" fill="#90CC86"/>
<path d="M71.6201 95.8664C70.0388 95.865 68.6231 95.8622 67.0299 95.8568C66.6638 95.3331 66.4752 94.8121 66.3076 94.3491C66.9706 93.6246 67.5925 92.9449 68.3038 92.1766C72.4415 91.9356 76.5177 92.029 80.5318 91.5715C86.1232 90.9342 91.2613 88.8458 95.7744 85.4017C97.2298 84.291 98.5236 82.9659 100.01 81.6968C99.3643 82.9105 98.8592 84.4936 97.7833 85.355C95.43 87.2392 92.7985 88.7754 90.2545 90.4126C89.5649 90.8565 88.8051 91.2147 88.038 91.5075C85.2921 92.5553 82.5455 93.6061 79.765 94.5545C78.6489 94.9351 77.4445 95.0532 76.1625 95.3851C74.625 95.608 73.2054 95.7366 71.6201 95.8664Z" fill="#73BB96"/>
<path d="M50.898 53.161C49.1452 59.0966 44.8319 61.3618 40.4559 58.7791C38.2597 57.4829 36.883 55.6092 36.9628 52.8782C37.0123 51.1844 36.9567 49.4878 36.9621 47.7925C36.9754 43.5937 39.3966 40.9236 43.2611 40.8348C47.6537 40.7339 50.6838 43.3935 50.8937 47.6216C50.9817 49.3932 50.9063 51.173 50.898 53.161Z" fill="#FAFAFA"/>
<path d="M79.4891 41.2951C85.9751 39.1673 90.1639 43.3629 89.4788 48.7043C89.2853 50.2133 89.4989 51.7709 89.4458 53.3034C89.3363 56.4606 86.3886 59.5196 83.3236 59.7169C79.7071 59.9498 76.5486 57.8184 76.102 54.4281C75.7618 51.8456 75.9113 49.1892 75.9491 46.5673C75.9838 44.1637 77.3669 42.5582 79.4891 41.2951Z" fill="#FAFAFA"/>
<path d="M59.5913 81.4366C54.8483 81.3973 50.6401 79.5922 46.5884 77.3551C45.2775 76.6313 44.1069 75.6495 42.8748 74.7818C40.9705 73.4405 40.4727 71.5441 41.5966 69.9273C42.8026 68.1925 45.1794 67.8676 46.8309 69.5361C49.1118 71.8404 51.8324 73.2081 54.8947 73.8181C58.2145 74.4795 61.5953 74.831 65.1561 75.5224C64.4485 78.2413 63.9672 81.1977 60.1872 80.7571C60.0169 80.7373 59.7912 81.1991 59.5913 81.4366Z" fill="#FAFAFA"/>
<path d="M71.6555 74.3864C74.5479 72.7614 77.4283 71.114 80.3378 69.5206C81.8513 68.6917 83.5049 67.4753 85.0339 69.2919C86.4947 71.0275 85.7403 73.7172 83.7773 75.2102C79.6545 78.3459 75.053 80.3464 69.834 81.2241C70.9407 80.2345 72.2287 79.4124 73.4678 78.6213C72.9006 77.2958 72.278 75.8411 71.6555 74.3864Z" fill="#FAFAFA"/>
<path d="M71.4603 74.3701C72.278 75.841 72.9006 77.2956 73.4678 78.6212C72.2287 79.4122 70.9407 80.2344 69.6763 81.2192C69.5082 81.404 69.3165 81.4262 68.8774 81.2585C67.1271 80.159 65.9136 80.5007 64.9517 81.9299C63.2979 81.7944 61.6442 81.659 59.7909 81.4801C59.7913 81.1991 60.017 80.7373 60.1872 80.7571C63.9672 81.1977 64.4485 78.2413 65.3769 75.5529C67.3491 75.0371 69.307 74.6955 71.4603 74.3701Z" fill="#FAFAFA"/>
<path d="M65.1328 81.9543C65.9136 80.5004 67.1271 80.1587 68.7336 81.2373C67.6627 81.5971 66.4882 81.7881 65.1328 81.9543Z" fill="#FAFAFA"/>
<path d="M100.913 38.2715C101.292 38.5801 101.684 39.0162 102.059 39.5691C101.67 39.2569 101.298 38.828 100.913 38.2715Z" fill="#6CAED9"/>
<path d="M100.093 36.6709C100.269 36.8946 100.39 37.1975 100.51 37.6276C100.278 37.5737 100.049 37.3925 99.7826 37.1049C99.8436 36.9157 99.9407 36.8329 100.093 36.6709Z" fill="#6CAED9"/>
<path d="M107.012 49.0601C107.141 49.3347 107.28 49.7485 107.414 50.3005C107.28 50.0255 107.151 49.6124 107.012 49.0601Z" fill="#6CAED9"/>
<path d="M103.449 77.4082C103.486 77.5741 103.412 77.7893 103.248 78.0772C103.218 77.9191 103.279 77.6883 103.449 77.4082Z" fill="#73BB96"/>
<path d="M107.447 50.9575C107.569 51.0295 107.665 51.2207 107.769 51.5213C107.658 51.4461 107.54 51.2615 107.447 50.9575Z" fill="#6CAED9"/>
<path d="M100.418 81.272C100.462 81.3486 100.4 81.4384 100.246 81.5566C100.171 81.4698 100.224 81.3699 100.418 81.272Z" fill="#73BB96"/>
<path d="M100.794 80.8496C100.841 80.9365 100.769 81.0355 100.597 81.1675C100.579 81.1048 100.639 80.9919 100.794 80.8496Z" fill="#73BB96"/>
<path d="M101.176 80.4624C101.196 80.5338 101.118 80.6366 100.956 80.7886C100.94 80.7231 101.009 80.6085 101.176 80.4624Z" fill="#73BB96"/>
<path d="M101.557 80.0815C101.576 80.1521 101.497 80.2543 101.333 80.4065C101.319 80.342 101.389 80.2276 101.557 80.0815Z" fill="#73BB96"/>
<path d="M101.94 79.6914C101.957 79.7578 101.88 79.8624 101.719 80.0188C101.706 79.9569 101.775 79.8432 101.94 79.6914Z" fill="#73BB96"/>
<path d="M102.704 78.54C102.765 78.6215 102.707 78.7224 102.561 78.8679C102.533 78.8082 102.571 78.6906 102.704 78.54Z" fill="#73BB96"/>
<path d="M103.088 78.1538C103.107 78.224 103.027 78.327 102.864 78.4803C102.849 78.4159 102.92 78.3013 103.088 78.1538Z" fill="#73BB96"/>
<path d="M103.855 76.998C103.873 77.0668 103.794 77.1708 103.631 77.326C103.617 77.2626 103.688 77.1479 103.855 76.998Z" fill="#73BB96"/>
<path d="M106.699 48.6186C106.815 48.585 106.891 48.6693 106.978 48.851C106.898 48.8606 106.787 48.79 106.699 48.6186Z" fill="#6CAED9"/>
</svg>
