<svg width="858" height="291" viewBox="0 0 858 291" fill="none" xmlns="http://www.w3.org/2000/svg">
<path d="M415.71 65.2711C421.582 70.9092 423.988 77.6625 423.942 85.2674C423.905 91.2245 423.864 97.2378 423.063 103.122C421.373 115.54 409.611 124.036 396.732 124.884C388.281 125.44 379.762 124.88 371.277 125.027C367.982 125.084 366.953 123.789 366.969 120.61C367.067 100.806 366.968 81.0003 367.16 61.1976C367.173 59.802 368.999 57.218 369.976 57.2207C382.212 57.2547 394.645 55.5105 406.517 59.8373C409.703 60.9983 412.487 63.2611 415.71 65.2711ZM381.972 75.6663C381.977 85.4986 381.976 95.3308 381.989 105.163C381.999 113.551 382.398 114.062 390.79 112.874C397.715 111.895 405.139 111.103 407.49 102.721C408.463 99.2509 408.899 95.5276 408.932 91.9134C409.097 74.0731 404.112 69.4063 386.387 69.9053C382.752 70.0076 381.616 71.4307 381.972 75.6663Z" fill="#ECECEC"/>
<path d="M669.942 85.484C667.022 97.1424 659.01 103.542 647.304 103.986C646.971 103.999 646.638 103.987 646.305 103.991C632.985 104.16 633.053 104.161 632.913 117.784C632.889 120.086 632.302 124.223 631.455 124.363C627.439 125.026 623.234 124.711 619.123 124.397C618.667 124.362 618.066 122.118 618.062 120.896C617.996 100.919 617.966 80.942 618.129 60.9663C618.139 59.6567 619.767 57.2357 620.655 57.2304C630.28 57.1731 640.058 56.5083 649.502 57.9373C665.198 60.3122 670.003 66.8497 669.983 82.5472C669.982 83.3795 669.97 84.2119 669.942 85.484ZM649.489 90.6046C654.615 87.0406 656.614 81.8356 654.574 76.3769C652.68 71.3102 648.639 69.5579 643.434 69.963C641.782 70.0915 640.087 70.1768 638.456 69.9565C633.934 69.3461 632.872 71.3947 632.888 75.6449C632.952 91.5767 632.815 91.5772 649.489 90.6046Z" fill="#ECECEC"/>
<path d="M387.952 208.417C391.716 208.723 395.389 209.706 398.472 208.763C401.476 207.844 404.003 205.096 406.496 202.878C407.989 201.55 408.83 198.547 410.292 198.309C414 197.704 417.903 198.134 421.698 198.48C422.031 198.511 422.65 201.129 422.279 202.266C419.135 211.908 413.165 219.021 402.876 221.076C389.521 223.742 378.852 222.18 370.347 211.601C363.919 203.608 362.423 193.704 363.165 183.749C364.005 172.497 367.145 161.971 377.816 155.855C390.957 148.324 417.812 149.773 422.425 172.525C423.143 176.067 422.252 177.172 418.91 176.999C417.415 176.921 415.895 176.828 414.419 177.008C410.187 177.523 407.736 176.262 406.595 171.657C405.157 165.849 399.826 164.16 394.813 164.432C390.007 164.693 384.489 164.742 381.952 170.85C377.644 181.225 377.628 191.587 381.643 201.85C382.63 204.374 385.563 206.138 387.952 208.417Z" fill="#ECECEC"/>
<path d="M539.003 85.9878C528.581 86.0332 526.999 87.6472 527.007 98.1894C527.013 105.684 526.904 113.181 527.049 120.672C527.112 123.922 525.885 125.066 522.655 125.011C511.203 124.818 513.172 125.977 513.025 115.497C512.929 108.669 513.151 101.836 512.955 95.0128C512.784 89.0341 510.642 86.3632 506.371 86.0213C501.013 85.5924 498.09 88.0436 498.019 93.4279C497.901 102.42 497.88 111.417 498.046 120.407C498.11 123.876 496.876 125.1 493.402 125.029C481.021 124.777 483.157 126.314 483.031 114.75C482.905 103.093 483.125 91.432 482.946 79.7765C482.888 76.0435 484.177 74.5419 487.861 74.9954C489.01 75.1368 490.2 75.1075 491.354 74.9927C495.017 74.6289 497.744 75.3338 496.969 81.0445C501.365 75.8468 506.007 73.8785 511.86 73.9045C517.854 73.9311 521.875 76.825 525.357 81.1242C533.031 71.979 541.847 72.8329 547.695 75.4805C553.095 77.9256 556.028 82.4122 556.003 88.58C555.961 99.0723 555.977 109.565 555.582 120.383C554.798 119.027 554.081 117.35 554.054 115.662C553.931 107.727 554.382 99.7604 553.813 91.8637C553.576 88.5831 551.696 85.1925 549.815 82.3458C548.714 80.6782 546.139 79.9838 543.96 78.6932C540.668 79.6546 538.27 81.6848 539.003 85.9878Z" fill="#ECECEC"/>
<path d="M466.081 170.604C474.446 174.002 476.641 180.863 476.912 188.498C477.236 197.653 476.906 206.829 477.044 215.992C477.098 219.617 475.734 221.097 472.051 221.023C460.152 220.785 462.167 222.133 462.016 211.391C461.915 204.226 461.922 197.058 462.019 189.893C462.077 185.63 460.466 182.802 456.067 182.063C450.844 181.185 446.329 183.401 445.134 187.656C444.468 190.026 444.095 192.544 444.039 195.006C443.891 201.502 443.995 208.004 443.987 214.504C443.979 220.968 443.973 220.968 437.321 220.976C430.024 220.985 430.024 220.985 430.023 213.644C430.021 195.311 430.141 176.978 429.926 158.648C429.876 154.35 430.973 152.327 435.493 152.977C436.799 153.164 438.168 153.123 439.486 152.979C443.039 152.593 444.156 154.209 444.045 157.623C443.85 163.608 443.991 169.605 443.991 176.199C450.563 170.46 457.565 168.027 466.081 170.604Z" fill="#ECECEC"/>
<path d="M802.605 140.111C802.244 138.778 802.059 137.791 802.036 136.801C801.882 130.144 801.893 130.144 808.372 130.012C815.124 129.874 816.936 127.585 814.594 121.335C809.52 107.791 804.188 94.3439 798.985 80.8479C798.35 79.201 797.861 77.4979 797.059 75.0813C802.086 75.0813 806.394 74.8033 810.625 75.2517C811.885 75.3852 813.475 77.3676 813.98 78.8261C816.805 86.9935 819.332 95.2635 821.991 103.489C822.488 105.029 823.117 106.526 824.125 109.216C827.173 99.685 829.931 91.2922 832.535 82.8518C834.949 75.0247 834.877 75.0025 843.002 75.0073C844.977 75.0085 846.953 75.0075 849.825 75.0075C849.046 77.7692 848.593 79.9542 847.821 82.02C841.942 97.7507 836.031 113.47 830.067 129.169C826.041 139.767 813.546 144.91 802.605 140.111Z" fill="#ECECEC"/>
<path d="M675.345 102.484C680.134 97.1222 686.365 96.0057 692.651 95.0241C694.449 94.7434 696.254 94.2167 698.047 94.2522C701.868 94.3279 703.726 92.8317 702.927 88.898C702.118 84.913 698.759 83.7758 695.724 84.4858C692.626 85.2106 689.911 87.5755 685.999 89.8103C683.218 89.8103 678.946 89.8103 674.673 89.8103C674.26 89.3954 673.847 88.9805 673.434 88.5656C675.681 85.3463 677.328 81.3518 680.291 79.0563C688.399 72.7741 697.731 72.5603 707.251 75.585C714.89 78.012 717.757 83.91 717.935 91.2811C718.167 100.942 717.852 110.615 718.062 120.277C718.145 124.112 716.64 125.402 713.057 124.993C711.906 124.862 710.715 124.878 709.561 125C705.965 125.381 703.251 124.717 703.885 119.937C693.762 127.318 683.957 127.992 677.579 122.03C671.691 116.526 670.835 109.773 675.345 102.484ZM703.19 104.48C698.483 101.22 694.246 104.343 690.122 105.857C688.71 106.375 687.045 109.577 687.479 110.904C688.033 112.602 690.447 114.486 692.318 114.814C698.607 115.916 702.615 112.089 703.19 104.48Z" fill="#ECECEC"/>
<path d="M477.409 94.7481C477.697 96.4734 477.821 97.7934 477.992 99.107C478.467 102.743 477.048 104.172 473.246 104.059C465.422 103.827 457.586 103.99 449.755 103.991C448.125 103.991 446.496 103.991 444.849 103.991C445.203 113.5 454.01 118.714 460.723 113.17C466.229 108.622 471.052 110.392 477.081 111.699C474.904 118.037 470.67 122.159 465.042 124.316C457.085 127.364 443.428 127.523 435.627 118.275C429.669 111.21 427.372 97.173 431.975 87.2635C436.264 78.03 443.733 73.8295 453.954 73.982C467.454 74.1835 475.26 80.839 477.409 94.7481ZM462.277 93.8548C462.556 93.3336 463.099 92.7996 463.074 92.2934C462.832 87.359 459.534 84.9145 453.358 84.9966C447.857 85.0698 445.42 87.6399 445.193 93.6107C445.501 93.7163 445.809 93.9123 446.117 93.914C451.245 93.9432 456.373 93.9479 462.277 93.8548Z" fill="#ECECEC"/>
<path d="M501.392 170.01C506.458 170.359 511.204 170.153 515.656 171.198C523.157 172.96 526.527 178.873 526.861 185.989C527.345 196.29 526.928 206.632 527.034 216.955C527.066 220 525.837 221.208 522.87 220.996C521.214 220.877 519.524 220.821 517.88 221.009C514.286 221.418 512.397 220.134 512.954 216.554C508.847 218.335 504.995 220.578 500.841 221.668C494.959 223.211 486.977 219.718 484.1 215.136C480.988 210.18 480.557 202.159 484.767 198.378C488.506 195.019 493.732 193.117 498.564 191.25C501.409 190.15 504.798 190.539 507.878 189.932C509.533 189.606 512.376 188.594 512.379 187.883C512.386 185.93 511.628 183.583 510.351 182.099C507.765 179.093 501.255 179.089 499.255 182.601C496.897 186.743 494.047 186.664 490.328 186.025C488.268 185.671 486.129 185.768 484.038 185.662C484.338 177.43 490.617 171.806 501.392 170.01ZM511.881 199.353C508.275 199.636 504.411 199.231 501.158 200.452C499.107 201.222 496.899 204.377 496.806 206.55C496.746 207.946 500.249 210.452 502.422 210.803C508.522 211.787 513.123 206.45 511.881 199.353Z" fill="#ECECEC"/>
<path d="M578.977 74.5437C584.802 74.6188 590.494 73.8836 595.608 75.2736C605.518 77.9671 610.847 86.2989 611.015 96.6085C611.156 105.244 610.841 113.502 603.637 119.921C595.268 127.378 585.865 127.569 576.162 124.06C567.067 120.77 562.893 113.238 562.114 104.024C561.343 94.902 561.915 85.8507 570.035 79.574C572.606 77.5871 575.718 76.3007 578.977 74.5437ZM579.452 88.0529C575.561 95.0879 576.188 102.411 578.398 109.684C579.649 113.803 583.289 115.091 587.142 114.846C591.228 114.586 594.895 112.541 595.565 108.293C596.322 103.484 596.759 98.3641 595.934 93.6234C594.419 84.9185 587.387 82.4899 579.452 88.0529Z" fill="#ECECEC"/>
<path d="M787.172 86.0334C785.82 87.4951 784.202 88.9047 784.128 90.3919C783.827 96.362 784.157 102.361 783.951 108.339C783.821 112.095 785.199 114.118 789.018 113.986C794.524 113.796 792.617 117.883 792.965 120.652C793.369 123.861 791.928 124.933 788.692 125.04C771.677 125.604 769.002 123.105 768.987 106.005C768.982 100.685 768.921 95.3634 769.011 90.0448C769.054 87.4847 768.43 85.8614 765.444 85.9796C761.029 86.1545 762.087 82.785 762.057 80.3334C762.029 77.9975 761.212 74.862 765.278 75.0464C769.071 75.2185 768.988 72.7886 769.011 70.1268C769.095 60.0159 767.424 61.2487 778.445 60.9154C782.865 60.7817 784.624 62.1802 784.021 66.564C783.841 67.869 784.094 69.2286 783.979 70.5485C783.711 73.6343 784.775 75.4646 788.146 74.9835C792.985 74.293 792.877 77.2854 793.069 80.771C793.302 85.0288 791.638 86.5582 787.172 86.0334Z" fill="#ECECEC"/>
<path d="M536.998 188.158C537.161 184.516 537.267 181.809 532.589 181.832C528.56 181.852 530.23 178.198 530.065 176.033C529.897 173.839 529.385 170.928 533.093 171.064C536.238 171.179 536.947 169.647 537.036 166.799C537.358 156.557 537.443 156.695 547.811 156.946C551.185 157.028 552.276 158.354 552.016 161.448C551.918 162.605 552.115 163.789 551.988 164.94C551.524 169.129 552.524 171.707 557.563 171.077C561.583 170.573 561.065 173.755 560.939 176.156C560.816 178.524 562.173 182.29 557.73 181.888C552.421 181.408 551.656 184.024 551.942 188.401C552.235 192.876 552.005 197.385 552.003 201.879C551.999 209.044 552.879 209.943 560.89 209.936C560.89 212.803 561.092 215.715 560.768 218.567C560.669 219.439 559.154 220.774 558.234 220.819C554.426 221.005 550.526 221.218 546.793 220.606C540.359 219.551 537.241 215.22 537.033 207.609C536.861 201.289 536.998 194.96 536.998 188.158Z" fill="#ECECEC"/>
<path d="M740.906 93.9967C740.603 101.926 740.391 109.861 739.942 117.782C739.81 120.095 739.316 124.203 738.456 124.349C734.449 125.027 730.248 124.718 726.141 124.418C725.685 124.385 725.072 122.167 725.066 120.96C724.993 107.003 725.072 93.0454 724.986 79.0888C724.968 76.1053 726.046 74.8121 729.068 74.9998C731.385 75.1437 733.729 75.1635 736.042 74.991C739.169 74.7578 740.263 76.2364 739.82 79.7949C741.302 81.8117 742.975 83.1595 744.762 84.5995C744.208 85.9979 743.609 87.5125 743.01 89.0271C743.01 89.027 742.934 89.5114 742.545 89.7708C739.897 90.7711 737.122 91.3495 740.906 93.9967Z" fill="#ECECEC"/>
<path d="M539.18 86.3079C538.27 81.6849 540.668 79.6547 543.96 78.6934C546.139 79.9839 548.714 80.6784 549.815 82.346C551.696 85.1926 553.576 88.5832 553.813 91.8638C554.382 99.7605 553.931 107.727 554.054 115.663C554.081 117.35 554.798 119.027 555.558 120.851C556.252 123.636 555.357 125.014 552.423 124.995C539.682 124.912 542.22 125.967 542.036 115.354C541.921 108.726 542.277 102.078 541.889 95.4704C541.713 92.4836 540.241 89.573 539.18 86.3079Z" fill="#ECECEC"/>
<path d="M743.391 88.9575C743.609 87.5124 744.208 85.9978 744.762 84.5995C742.975 83.1595 741.302 81.8116 739.831 80.218C744.069 76.4915 748.144 73.39 754.06 73.925C757.075 74.1977 758.213 75.2674 757.997 78.1529C757.898 79.4643 757.873 80.8021 758.013 82.1065C758.395 85.6593 757.086 87.0778 753.318 87.1131C750.131 87.143 746.954 88.255 743.391 88.9575Z" fill="#ECECEC"/>
<path d="M740.975 93.6805C737.123 91.3496 739.898 90.7712 742.503 90.0122C742.246 91.1175 741.645 92.2408 740.975 93.6805Z" fill="#1F1E23"/>
<path d="M738.49 95.484C738.466 95.4944 738.515 95.4736 738.49 95.484V95.484Z" fill="#1F1E23"/>
<path d="M61.0324 24.1962C67.4149 22.1467 73.7974 20.0972 80.4182 18.4375C78.7722 25.3024 76.7306 31.7368 75.0429 38.2627C72.8869 46.5994 71.0822 55.0264 68.9885 63.38C68.2212 66.4414 67.3222 69.5232 66.0204 72.3851C63.8525 77.151 60.8792 81.588 59.0807 86.4713C57.8947 89.6915 58.173 93.4509 57.7749 97.3324C55.517 102.808 53.2798 107.921 50.7448 112.901C49.0367 113.291 47.1612 113.404 46.2905 114.397C40.1007 121.46 34.3786 128.948 27.9749 135.804C23.6675 140.415 18.4889 144.212 13.7 148.374C13.0157 148.068 12.3313 147.762 11.647 147.457C11.4203 143.311 11.1935 139.164 10.9753 134.6C10.6932 130.024 11.8695 126.962 15.9669 124.821C19.1301 123.168 22.1417 120.707 24.397 117.936C30.1371 110.881 35.693 103.639 40.7927 96.1134C45.0354 89.8522 49.1426 83.3545 52.1952 76.4676C56.218 67.3918 60.3562 58.0583 62.1607 48.4085C63.5427 41.0186 68.598 32.5227 61.1275 25.1707C60.949 24.995 61.0576 24.5275 61.0324 24.1962Z" fill="#FB97C2"/>
<path d="M60.677 24.2075C61.0576 24.5277 60.949 24.9951 61.1275 25.1708C68.598 32.5229 63.5427 41.0187 62.1607 48.4086C60.3562 58.0584 56.218 67.392 52.1952 76.4677C49.1426 83.3547 45.0354 89.8523 40.7927 96.1135C35.693 103.64 30.1371 110.882 24.397 117.936C22.1417 120.708 19.1301 123.168 15.9669 124.821C11.8695 126.962 10.6932 130.024 10.7873 134.6C10.5906 135.019 10.214 135.033 10.214 135.033C10.1584 129.651 10.1029 124.269 10.3217 118.139C13.3885 114.109 15.8218 110.413 19.0392 107.621C29.6563 98.4079 35.5506 86.2258 41.2171 73.8279C43.4219 69.004 45.7193 64.2213 48.0438 59.4537C52.7672 49.7659 56.4994 39.9333 52.9705 28.9206C55.4209 27.3533 57.8712 25.786 60.677 24.2075Z" fill="#FCA1BA"/>
<path d="M10.1335 135.492C10.214 135.033 10.5906 135.019 10.7787 135.018C11.1935 139.164 11.4202 143.311 11.647 147.457C12.3313 147.762 13.0157 148.068 13.7 148.374C18.4888 144.212 23.6675 140.415 27.9749 135.804C34.3785 128.948 40.1007 121.46 46.2905 114.397C47.1612 113.404 49.0366 113.291 50.713 113.32C49.9212 120.581 48.8633 127.29 47.4869 134.098C44.8955 137.39 42.6226 140.585 40.1806 144.017C39.645 143.716 38.344 142.983 37.0573 142.259C35.9461 146.064 35.5316 149.793 33.8208 152.779C31.4781 156.869 28.3465 160.57 25.1792 164.102C22.9293 166.611 20.0695 168.575 17.4678 170.765C15.3861 172.518 13.2829 174.245 11.1893 175.983C10.808 173.087 10.1342 170.194 10.0978 167.294C9.96663 156.847 10.0504 146.398 10.1335 135.492Z" fill="#F38DCA"/>
<path d="M52.6084 28.9688C56.4995 39.9332 52.7672 49.7658 48.0439 59.4535C45.7193 64.2212 43.4219 69.0039 41.2172 73.8277C35.5507 86.2256 29.6563 98.4078 19.0392 107.621C15.8218 110.413 13.3886 114.108 10.4 117.674C10.4778 111.249 10.7518 104.539 11.3357 97.1708C14.5293 95.3275 18.6712 94.9619 20.0718 92.8112C25.1947 84.9445 29.8035 76.6727 33.832 68.1861C37.0634 61.3789 38.3484 53.5655 42.0633 47.0982C44.6636 42.5713 45.0963 39.9499 40.9707 36.925C44.7292 34.289 48.4877 31.653 52.6084 28.9688Z" fill="#FCA8B4"/>
<path d="M11.1187 176.408C13.283 174.245 15.3861 172.518 17.4678 170.765C20.0696 168.575 22.9293 166.611 25.1792 164.102C28.3466 160.57 31.4782 156.869 33.8208 152.78C35.5317 149.793 35.9461 146.064 37.0573 142.259C38.344 142.983 39.6451 143.716 40.1806 144.017C42.6226 140.585 44.8955 137.39 47.5619 134.559C48.2381 141.948 48.5209 148.974 48.4167 156C46.2531 156.654 43.9148 156.809 42.8058 158.056C39.5496 161.719 36.3824 165.581 33.9028 169.791C28.0324 179.757 22.5794 189.968 16.9576 200.081C14.9877 192.332 13.0178 184.583 11.1187 176.408Z" fill="#EB89D1"/>
<path d="M40.656 37.0474C45.0963 39.9501 44.6635 42.5715 42.0632 47.0985C38.3484 53.5658 37.0634 61.3792 33.832 68.1864C29.8035 76.6729 25.1947 84.9448 20.0718 92.8114C18.6712 94.9622 14.5293 95.3278 11.4184 96.7411C13.4442 87.7593 15.2166 78.3974 18.0646 69.3749C22.1398 56.4645 30.4697 46.2165 40.656 37.0474Z" fill="#FBB0AE"/>
<path d="M312.848 216.003C309.125 220.954 305.402 225.904 301.297 230.636C298.795 224.964 295.023 228.409 292.16 229.09C280.73 231.811 268.99 233.884 258.129 238.143C248.715 241.834 240.247 248.018 231.568 253.432C229.881 254.485 229.149 257.07 227.515 258.965C222.848 258.982 218.644 258.982 214.44 258.982C214.206 258.377 213.972 257.772 213.739 257.167C215.53 255.438 217.036 253.131 219.163 252.082C227.181 248.129 235.463 244.717 243.528 240.855C255.142 235.295 266.669 229.552 278.173 223.767C279.028 223.337 279.402 221.948 280.373 220.942C282.803 220.211 284.816 219.202 286.924 218.934C295.55 217.834 304.204 216.96 312.848 216.003Z" fill="#BEE175"/>
<path d="M57.7956 96.9689C58.173 93.4509 57.8947 89.6914 59.0807 86.4712C60.8792 81.588 63.8525 77.151 66.0204 72.385C67.3221 69.5231 68.2212 66.4413 68.9885 63.3799C71.0822 55.0264 72.8869 46.5994 75.0429 38.2627C76.7306 31.7368 78.7721 25.3024 80.8191 18.5025C86.015 17.4693 91.0483 16.761 96.2281 16.3379C95.4347 16.9592 94.5168 17.3878 93.5515 17.6167C85.9524 19.4182 85.0506 21.146 86.9764 28.7476C87.5121 30.8616 87.4898 33.4275 86.8102 35.4843C84.1205 43.6238 80.91 51.5916 78.2443 59.7381C77.412 62.2817 77.688 65.1879 77.4567 67.9281C79.6536 67.9682 81.8506 68.0082 83.9177 68.3697C79.586 72.2068 74.9139 75.3014 71.2972 79.341C66.3746 84.8391 62.2579 91.0587 57.7956 96.9689Z" fill="#FB8CC5"/>
<path d="M238.031 16.9395C246.922 19.0565 255.812 21.1736 264.503 23.6484C261.197 25.3747 255.578 25.3915 260.546 31.1137C260.85 31.4638 260.473 32.7743 260.032 33.3433C256.991 37.2682 258.09 40.9682 260.173 44.8833C261.713 47.7779 262.742 50.9441 263.997 54.4065C263.993 56.2125 263.99 57.6014 263.526 58.9917C258.045 59.3247 253.026 59.6562 248.012 59.5762C247.598 54.701 247.642 50.1238 246.584 45.8172C245.97 43.3196 243.585 41.2572 241.998 38.563C241.818 35.8613 241.865 33.549 241.411 31.3394C240.419 26.5117 239.173 21.7362 238.031 16.9395Z" fill="#94A4F4"/>
<path d="M165.992 15.1743C175.019 15.1282 184.045 15.0821 193.533 15.3134C193.995 15.5908 193.993 15.9965 193.598 16.0322C189.049 18.5119 191.089 22.1952 191.664 25.2852C193.434 34.7944 189.758 42.5542 183.757 49.2216C182.101 51.0615 178.279 50.9513 175.621 51.6885C175.978 52.2385 176.49 53.0284 176.541 53.8923C171.387 53.9198 166.695 53.8735 162.038 53.4521C163.204 52.3854 164.371 51.7452 165.457 50.9898C167.076 49.8637 169.805 48.8488 170.036 47.452C171.423 39.0544 174.751 31.047 173.517 22.0653C172.758 16.5414 170.637 15.3865 165.993 15.7882C165.993 15.5836 165.992 15.1743 165.992 15.1743Z" fill="#B883E8"/>
<path d="M108.062 267.038C107.58 267.347 107.098 267.656 106.105 267.821C104.757 268.459 103.922 269.241 103.086 270.024C98.6413 272.336 94.1968 274.648 89.5965 276.649C89.0225 273.274 88.9748 270.088 88.0227 267.201C87.5759 265.846 85.3864 265.066 83.8359 263.732C82.7946 261.959 81.9041 260.478 81.0211 258.62C81.655 256.156 82.2814 254.069 83.0646 251.695C86.4554 250.25 89.6893 249.093 93.1292 247.855C93.5891 247.617 93.8034 247.417 94.2545 247.077C94.9946 246.643 95.4581 246.305 96.3502 245.978C104.266 242.775 109.781 248.984 116.818 249.704C115.501 252.527 114.446 254.88 113.312 257.194C112.234 259.391 111.089 261.555 109.944 263.718C109.349 264.842 108.691 265.932 108.062 267.038Z" fill="#BC98C4"/>
<path d="M63.1991 248.034C60.2175 245.915 57.2358 243.795 53.9209 241.135C53.0476 240.409 52.5077 240.223 51.9677 240.038C51.9677 240.038 51.9988 240 51.9347 239.657C51.673 238.509 51.1037 237.571 51.3366 236.921C53.1329 231.902 54.9902 226.9 57.0253 221.974C58.1574 219.234 59.6663 216.65 61.3311 213.917C63.434 212.225 65.2111 210.612 67.0114 209.411C67.3722 212.111 67.8081 214.39 68.0301 216.689C68.8759 225.451 72.2268 232.505 80.9407 236.462C81.0056 238.968 81.046 241.032 81.0436 243.399C81.0116 244.108 81.0227 244.515 81.0256 245.212C81.0232 245.695 81.0291 245.889 81.0278 246.303C81.0207 246.524 81.0905 246.962 80.6279 246.973C74.7614 247.67 69.3576 248.357 63.9538 249.043C63.9538 249.043 63.9987 248.999 63.885 248.833C63.6236 248.416 63.4329 248.206 63.1991 248.034Z" fill="#B482EF"/>
<path d="M303.094 53.9513C306.059 58.3862 309.024 62.821 311.73 67.5082C310.155 68.848 308.756 69.8524 307.546 71.0466C306.34 72.2357 305.578 74.1988 304.178 74.8103C298.172 77.4353 292.01 79.6042 288.83 86.1373C288.082 87.6729 286.346 88.7274 284.763 89.8422C282.643 88.7838 280.825 87.8865 279.01 86.5545C278.346 82.0806 277.68 78.0413 277.305 73.8362C279.398 71.1124 281.2 68.5542 283.345 65.9385C287.939 62.366 292.098 58.7314 296.486 55.3999C298.061 54.2045 300.191 53.74 302.067 52.9419C302.067 52.9419 302.011 52.993 302.159 53.1674C302.57 53.5449 302.832 53.7481 303.094 53.9513Z" fill="#78C0F2"/>
<path d="M29.9703 222.074C26.9794 217.976 23.9885 213.877 21.2533 209.234C23.8583 206.819 26.2076 204.947 29.1102 202.635C28.8887 202.147 28.096 200.4 27.1989 198.423C29.1097 197.426 31.4193 196.968 32.3936 195.575C35.5146 191.115 38.0762 186.267 40.9757 181.645C44.2834 176.373 47.7222 171.183 51.4358 166.136C53.1805 170.539 54.5933 174.764 55.7118 179.166C51.6338 185.517 47.8305 191.678 44.0729 197.867C41.0074 202.916 37.9623 207.979 34.9746 213.074C33.2387 216.034 31.634 219.072 29.9703 222.074Z" fill="#D885DC"/>
<path d="M108.43 267.011C108.691 265.932 109.349 264.842 109.944 263.718C111.089 261.555 112.234 259.391 113.312 257.194C114.446 254.88 115.501 252.527 116.818 249.704C109.781 248.984 104.266 242.775 96.5048 245.662C103.5 240.726 110.751 236.085 118.058 231.535C119.245 230.795 120.679 230.452 122.226 230.159C124.017 230.282 125.582 230.171 127.147 230.06C127.122 230.488 127.097 230.916 127.072 231.344C129.567 231.677 132.066 231.981 134.555 232.356C135.908 232.561 138.267 232.665 138.385 233.204C138.688 234.595 138.177 236.272 137.634 237.698C137.313 238.542 136.254 239.078 135.63 239.837C133.42 242.529 131.254 245.257 128.915 248.285C126.505 253.002 124.252 257.404 121.999 261.806C117.599 263.532 113.198 265.258 108.43 267.011Z" fill="#959FC0"/>
<path d="M51.104 165.958C47.7222 171.183 44.2834 176.373 40.9757 181.645C38.0762 186.267 35.5146 191.115 32.3936 195.575C31.4193 196.968 29.1097 197.426 27.1989 198.423C28.096 200.4 28.8887 202.147 29.1102 202.635C26.2076 204.947 23.8583 206.819 21.2108 208.87C19.6091 206.312 18.3055 203.574 16.9797 200.459C22.5793 189.968 28.0324 179.756 33.9028 169.79C36.3824 165.581 39.5496 161.719 42.8058 158.056C43.9148 156.809 46.2531 156.654 48.501 156.39C49.6829 159.839 50.3934 162.898 51.104 165.958Z" fill="#E387D6"/>
<path d="M84.0476 68.0483C81.8507 68.0082 79.6537 67.9681 77.4568 67.9281C77.6881 65.1879 77.4121 62.2817 78.2444 59.7381C80.9101 51.5916 84.1206 43.6237 86.8103 35.4843C87.4899 33.4275 87.5121 30.8616 86.9765 28.7476C85.0506 21.146 85.9525 19.4181 93.5516 17.6167C94.5169 17.3878 95.4348 16.9592 96.6735 16.4096C100.683 15.8071 104.394 15.4181 108.553 15.3091C109.001 15.5891 109.004 16.0048 108.58 16.004C104.279 15.6009 102.227 16.6137 101.78 21.2167C100.425 35.1763 94.3598 47.6584 88.2437 60.0101C86.4573 63.6177 87.839 64.0287 90.7783 64.3252C89.5191 65.1149 88.2921 65.569 86.8538 66.1517C86.3774 66.488 86.1729 66.744 86.0145 67.0245C86 67.0005 86.0418 67.0378 85.7475 67.0701C84.9774 67.4233 84.5015 67.7442 84.0151 68.0395C84.0045 68.014 84.0476 68.0483 84.0476 68.0483Z" fill="#FC82CB"/>
<path d="M216.965 15.1742C219.34 15.1259 221.716 15.0775 224.363 15.4545C224.484 18.1725 224.072 20.4835 224.231 22.7545C224.704 29.5124 225.402 36.2545 225.757 43.2318C223.302 45.761 220.965 47.9505 218.959 50.4094C217.991 51.5954 217.645 53.2887 216.584 54.832C205.435 54.5452 194.719 54.1787 184.299 53.6048C188.886 52.6007 193.15 51.3939 197.471 51.1331C201.139 50.9117 203.038 49.7501 203.386 45.9866C206.161 44.2965 209.982 43.0744 210.687 40.8602C212.836 34.1085 215.101 27.0425 211.802 19.838C211.379 18.9134 211.552 17.7154 211.454 16.6888C213.54 16.1153 215.253 15.6447 216.965 15.1742Z" fill="#A08FF0"/>
<path d="M227.977 258.948C229.149 257.07 229.881 254.485 231.568 253.432C240.247 248.018 248.715 241.834 258.129 238.143C268.99 233.884 280.73 231.811 292.16 229.091C295.023 228.409 298.795 224.964 300.983 230.766C299.286 233.006 297.522 234.896 295.219 237.057C294.471 237.586 294.261 237.844 294.051 238.102C294.051 238.102 294.032 238.031 293.857 238.175C293.474 238.577 293.266 238.836 293.059 239.094C293.059 239.094 293.049 239.008 292.634 239.027C285.773 237.324 279.655 239.259 273.696 241.166C269.332 242.563 265.373 245.174 261.085 246.868C255.755 248.974 250.099 250.327 244.949 252.773C243.092 253.655 242.291 256.762 241.008 258.853C241.008 258.853 240.589 259.01 239.899 259.033C235.465 259.02 231.721 258.984 227.977 258.948Z" fill="#CCE173"/>
<path d="M30.0016 222.42C31.634 219.072 33.2388 216.034 34.9746 213.074C37.9623 207.979 41.0074 202.916 44.0729 197.867C47.8305 191.678 51.6338 185.517 55.9525 179.219C56.7965 179.27 56.976 179.534 56.9175 180.201C57.2261 183.01 57.6433 185.503 58.0574 188.381C58.7014 191.511 59.3484 194.257 59.6633 197.085C57.4057 199.776 55.3785 202.317 53.5775 205.009C50.5198 209.579 47.6539 214.278 44.6142 218.861C42.1239 222.615 39.4981 226.28 36.9323 229.984C34.6325 227.578 32.3327 225.171 30.0016 222.42Z" fill="#CC83E3"/>
<path d="M165.529 15.1014C165.992 15.1743 165.993 15.5836 165.567 15.789C160.318 15.3291 158.904 17.5372 158.853 22.2154C158.806 26.5495 157.598 30.8841 156.771 35.1932C155.575 41.4146 154.262 47.6132 152.535 53.8945C141.729 53.9162 131.387 53.865 121.288 53.6162C122.345 53.2503 123.159 53.0819 124.412 52.9321C126.896 52.9492 128.942 52.9477 131.39 52.943C133.415 52.621 135.025 52.161 136.662 52.0105C141.092 51.6034 143.564 49.4002 143.99 44.8523C144.575 38.6117 145.711 32.3989 145.912 26.1517C146.238 15.9769 145.999 15.9692 135.577 16.0117C133.436 15.9954 131.722 15.9844 130.007 15.772C130.004 15.5707 130.001 15.1681 130.001 15.1681C141.69 15.1216 153.378 15.075 165.529 15.1014Z" fill="#D17FDE"/>
<path d="M285.065 90.0033C286.346 88.7275 288.082 87.673 288.83 86.1373C292.01 79.6042 298.172 77.4353 304.179 74.8103C305.578 74.1989 306.34 72.2357 307.546 71.0467C308.757 69.8524 310.155 68.8481 311.775 67.874C313.389 70.7307 314.699 73.4739 315.733 76.6692C314.781 79.0923 314.103 81.0633 313.369 83.1987C312.134 84.6511 310.614 86.4304 309.103 88.2177C306.067 91.8093 303.036 95.4053 299.685 98.8496C297.343 98.4506 295.31 97.9441 293.297 98.0148C290.532 98.112 287.781 98.6464 285.021 98.5439C285.034 95.3974 285.049 92.7004 285.065 90.0033Z" fill="#66CCED"/>
<path d="M328.073 125.898C328.375 131.167 328.705 136.435 328.964 141.705C329.052 143.503 328.96 145.31 328.672 147.913C328.264 149.527 327.965 150.355 328.037 151.15C328.432 155.501 327.516 156.793 322.305 156.473C316.815 156.136 311.094 158.543 305.574 160.103C302.304 161.027 299.202 162.576 296.071 163.948C292.878 165.346 289.645 166.7 286.612 168.399C284.292 169.699 282.361 171.164 282.002 166.542C283.114 159.787 284.183 153.431 285.449 147.411C285.903 150.614 286.159 153.481 286.351 155.62C298.066 152.372 309.332 148.969 320.748 146.187C327.892 144.446 327.995 144.866 327.995 137.551C327.677 133.742 327.355 130.379 327.031 126.772C327.029 126.528 327.034 126.039 327.294 126.008C327.727 125.95 327.9 125.924 328.073 125.898Z" fill="#6BD2A9"/>
<path d="M263.999 53.9892C262.742 50.944 261.713 47.7778 260.173 44.8832C258.09 40.9681 256.991 37.2681 260.032 33.3433C260.473 32.7742 260.85 31.4637 260.546 31.1136C255.578 25.3914 261.197 25.3746 264.677 23.9814C272.632 28.4144 280.214 32.8717 287.543 37.642C285.927 37.4092 284.58 36.4907 283.195 36.4284C281.947 36.3722 279.859 36.9358 279.523 37.7778C278.072 41.4088 277.128 45.2428 275.702 49.1698C271.603 50.8876 267.801 52.4384 263.999 53.9892Z" fill="#8BAFF5"/>
<path d="M327.034 126.04C327.034 126.04 327.029 126.528 326.621 126.748C322.535 127.135 318.824 127.053 315.187 127.532C310.853 128.104 306.6 129.258 302.28 129.968C299.056 130.498 295.788 130.8 292.527 131.055C290.688 131.199 288.826 131.044 286.725 131.027C286.475 131.031 285.977 131.069 285.614 130.858C284.907 126.777 284.563 122.908 284.608 119.026C288.668 118.011 292.341 117.009 296.328 116.159C299.812 117.457 303.288 120.057 306.091 119.465C313.236 117.957 321.036 117.565 326.789 111.984C326.86 113.351 326.931 114.718 327.008 116.952C327.021 120.559 327.027 123.299 327.034 126.04Z" fill="#59D3CC"/>
<path d="M281.958 166.942C282.361 171.164 284.293 169.699 286.612 168.4C289.645 166.7 292.878 165.346 296.071 163.948C299.202 162.576 302.304 161.027 305.574 160.103C311.094 158.543 316.815 156.136 322.305 156.473C327.516 156.793 328.432 155.501 328.037 151.15C327.965 150.355 328.264 149.527 328.598 148.379C328.46 155.251 328.116 162.456 327.349 169.535C325.544 168.161 324.151 165.859 322.786 165.876C319.566 165.916 316.241 166.73 313.171 167.825C306.042 170.368 299.039 173.263 291.712 175.78C289.044 175.907 286.379 175.72 284.308 176.74C279.229 179.239 279.339 179.463 278.988 173.564C280.003 171.115 280.981 169.029 281.958 166.942Z" fill="#75D49F"/>
<path d="M36.942 230.028C39.4981 226.28 42.1239 222.615 44.6142 218.861C47.6539 214.278 50.5198 209.579 53.5775 205.009C55.3785 202.317 57.4057 199.776 59.7332 197.477C60.4253 203.189 60.7153 208.592 61.0054 213.995C59.6663 216.65 58.1574 219.234 57.0253 221.974C54.9901 226.9 53.1329 231.902 51.3366 236.921C51.1037 237.572 51.6729 238.509 51.9168 239.674C47.5004 237.042 43.0379 234.05 38.1379 230.759C37.5117 230.278 37.2922 230.15 37.0418 230.075C37.0418 230.075 36.9516 230.072 36.942 230.028Z" fill="#C184EA"/>
<path d="M276 49.0026C277.128 45.2426 278.072 41.4086 279.523 37.7776C279.859 36.9356 281.947 36.372 283.195 36.4282C284.58 36.4905 285.927 37.4089 287.673 37.9605C292.697 42.7231 297.34 47.4798 302.025 52.5892C300.191 53.74 298.061 54.2045 296.487 55.3999C292.098 58.7314 287.939 62.366 283.109 65.6611C280.353 59.9618 278.176 54.4822 276 49.0026Z" fill="#83BDF6"/>
<path d="M122.391 261.735C124.252 257.404 126.505 253.002 129.333 248.292C135.62 247.994 140.647 246.574 144.626 242.023C145.909 240.554 148.191 239.957 150.374 239.027C152.154 239.389 153.575 239.686 154.995 240.369C156.131 243.502 150.989 246.251 154.936 249.345C153.865 251.38 152.465 252.963 151.98 254.79C151.655 256.013 152.627 257.582 153.02 259.209C153.021 259.423 153.029 259.85 153.029 259.85C146.925 259.899 140.811 259.759 134.719 260.065C130.724 260.265 126.761 261.109 122.391 261.735Z" fill="#89B5AB"/>
<path d="M300.002 98.9998C303.036 95.4056 306.067 91.8097 309.103 88.2181C310.614 86.4307 312.134 84.6515 313.369 83.1991C314.103 81.0636 314.781 79.0927 315.791 77.0449C318.414 83.3455 320.705 89.7228 323.009 96.9348C322.171 100.347 321.688 104.932 320.411 105.165C313.719 106.384 306.826 106.501 300.002 106.557C300.001 103.742 300.002 101.371 300.002 98.9998Z" fill="#59D4E8"/>
<path d="M227.515 258.965C231.721 258.984 235.465 259.02 239.678 259.07C238.807 259.405 237.469 259.997 236.127 260.004C224.734 260.065 213.34 260.019 201.452 259.726C200.958 259.448 200.911 259.018 200.956 258.656C204.942 255.495 208.597 252.119 212.875 250.007C226.092 243.483 239.519 237.383 252.922 231.244C257.864 228.98 262.966 227.069 268.363 224.938C272.487 223.587 276.243 222.296 280 221.004C279.402 221.948 279.028 223.337 278.173 223.767C266.669 229.552 255.142 235.295 243.528 240.856C235.463 244.717 227.181 248.129 219.163 252.082C217.036 253.131 215.53 255.438 213.739 257.167C213.972 257.772 214.206 258.377 214.44 258.982C218.644 258.982 222.848 258.982 227.515 258.965Z" fill="#B6DC7B"/>
<path d="M130.009 15.9732C131.722 15.9843 133.436 15.9954 135.575 16.4539C134.331 28.9163 132.659 40.9312 130.988 52.9461C128.942 52.9477 126.896 52.9492 124.419 52.4975C123.883 50.2265 123.674 48.4078 123.693 46.5914C123.762 39.681 123.024 32.6142 124.221 25.8971C126.176 14.9303 127.848 16.0361 115.564 16.0138C113.086 16.0085 111.045 16.0068 109.004 16.005C109.004 16.005 109.001 15.5893 109 15.3815C114.701 15.125 120.404 15.0764 126.82 15.2964C128.359 15.7011 129.184 15.8372 130.009 15.9732Z" fill="#E77BDA"/>
<path d="M226.012 43.0032C225.402 36.2549 224.704 29.5127 224.231 22.7548C224.072 20.4838 224.484 18.1729 224.803 15.524C229.171 15.5198 233.371 15.8718 237.801 16.5816C239.173 21.7362 240.419 26.5116 241.411 31.3393C241.865 33.5489 241.818 35.8612 241.659 38.6203C236.873 42.9928 232.554 47.3743 226.012 43.0032Z" fill="#9998F2"/>
<path d="M241.441 258.925C242.291 256.762 243.092 253.655 244.949 252.773C250.099 250.327 255.755 248.974 261.085 246.868C265.373 245.174 269.332 242.563 273.696 241.166C279.655 239.259 285.774 237.324 292.647 239.071C288.405 242.233 283.963 245.803 279.018 248.419C267.431 254.548 255.061 258.301 241.441 258.925Z" fill="#D8E373"/>
<path d="M280.373 220.942C276.243 222.296 272.487 223.587 268.424 224.598C268.978 223.4 269.75 222.376 270.712 221.583C273.433 219.338 276.232 217.187 279.352 214.944C282.861 213.099 285.858 210.902 289.203 209.6C297.812 206.248 306.151 200.102 316.044 206.357C316.063 207.545 316.078 208.337 316.093 209.129C315.111 211.204 314.13 213.279 312.999 215.679C304.204 216.96 295.549 217.834 286.924 218.934C284.816 219.202 282.803 220.211 280.373 220.942Z" fill="#AFDF79"/>
<path d="M216.504 15.1C215.253 15.6448 213.54 16.1154 211.454 16.6889C211.552 17.7154 211.379 18.9134 211.802 19.8381C215.101 27.0426 212.836 34.1086 210.687 40.8603C209.982 43.0744 206.161 44.2966 203.143 45.7018C201.984 43.1927 201.429 40.9582 200.912 38.7149C199.131 30.9818 199.993 22.4448 193.993 15.9962C193.993 15.9962 193.995 15.5905 193.997 15.3876C201.347 15.1317 208.695 15.0787 216.504 15.1Z" fill="#A98AED"/>
<path d="M200.911 259.018C200.911 259.018 200.958 259.448 200.989 259.662C185.33 259.912 169.641 259.948 153.491 259.917C153.03 259.85 153.021 259.423 153.455 259.21C156.405 258.53 159.406 258.776 161.347 257.46C167.015 253.619 171.673 247.658 177.796 245.259C189.131 240.82 201.227 238.322 213.272 235.246C214.695 235.653 215.853 235.83 216.946 236.347C215.589 238.124 214.296 239.56 212.592 240.999C198.513 245.191 183.705 246.604 172.406 257.452C181.991 259.359 191.472 258.86 200.911 259.018Z" fill="#96D18E"/>
<path d="M300.003 107.001C306.826 106.501 313.719 106.384 320.411 105.164C321.688 104.932 322.171 100.346 323.033 97.3369C324.352 101.666 325.658 106.428 326.877 111.587C321.036 117.565 313.236 117.957 306.091 119.465C303.288 120.056 299.812 117.457 296.381 115.8C297.414 112.526 298.708 109.764 300.003 107.001Z" fill="#56D2DA"/>
<path d="M291.984 176.015C299.039 173.263 306.042 170.368 313.171 167.825C316.241 166.73 319.566 165.916 322.786 165.876C324.15 165.859 325.544 168.161 326.991 169.766C326.959 171.962 326.861 173.801 326.096 175.76C323.915 175.537 322.291 174.653 320.906 174.936C312.245 176.703 303.127 177.102 295.751 183.009C294.825 183.751 293.258 183.693 291.61 184.006C290.014 183.833 288.795 183.66 286.771 183.373C288.805 180.502 290.395 178.259 291.984 176.015Z" fill="#7DD594"/>
<path d="M291.988 184.005C293.258 183.693 294.825 183.751 295.751 183.009C303.127 177.102 312.245 176.703 320.906 174.936C322.291 174.653 323.915 175.537 325.762 175.968C325.731 178.429 325.365 180.803 324.648 183.627C323.861 184.385 323.427 184.694 322.528 185.003C311.379 184.642 300.982 185.226 292.046 192.337C290.541 193.534 288.033 193.47 286.043 193.641C288.06 190.196 290.024 187.101 291.988 184.005Z" fill="#89D88A"/>
<path d="M81.0136 258.998C81.9041 260.478 82.7946 261.959 83.6686 264.026C82.4345 267.072 81.2169 269.531 79.6496 272.054C74.5952 273.405 69.8906 274.692 65.186 275.979C64.8056 271.29 64.4252 266.601 64.3881 261.647C66.5063 261.412 68.3291 261.717 70.0466 261.418C73.7311 260.776 77.3612 259.823 81.0136 258.998Z" fill="#D885DC"/>
<path d="M81.0211 258.62C77.3612 259.823 73.731 260.776 70.0466 261.418C68.329 261.717 66.5063 261.412 64.4604 261.208C64.1361 257.341 64.0826 253.649 63.9915 249.5C69.3576 248.357 74.7614 247.671 80.9011 247.104C82.0606 248.81 82.4841 250.396 82.9077 251.982C82.2814 254.069 81.655 256.156 81.0211 258.62Z" fill="#CC83E3"/>
<path d="M65.1129 276.379C69.8906 274.692 74.5952 273.405 79.8773 272.312C81.4285 274.31 82.402 276.114 83.3017 277.781C82.2004 279.56 81.1294 281.289 80.0584 283.019C80.0584 283.019 80.0422 283.042 79.8423 283.161C79.4048 283.462 79.2319 283.692 79.1237 283.971C70.8622 287.293 65.2007 284.402 65.1129 276.379Z" fill="#EB89D1"/>
<path d="M80.413 282.987C81.1293 281.289 82.2004 279.56 83.3017 277.781C82.402 276.114 81.4284 274.31 80.2271 272.249C81.2169 269.532 82.4344 267.072 83.8193 264.319C85.3864 265.066 87.5758 265.846 88.0227 267.201C88.9748 270.088 89.0225 273.274 89.2183 276.576C86.2531 278.862 83.5104 280.909 80.413 282.987Z" fill="#E387D6"/>
<path d="M322.993 185.004C323.427 184.695 323.861 184.386 324.565 184.025C323.145 189.898 321.456 195.821 319.394 201.886C319.02 202.027 318.916 201.953 318.939 201.554C319.312 199.098 319.661 197.04 320.166 194.656C321.213 191.221 322.103 188.112 322.993 185.004Z" fill="#96D18E"/>
<path d="M327.294 126.008C327.027 123.299 327.021 120.559 327.027 117.362C327.364 119.616 327.688 122.327 328.043 125.468C327.9 125.925 327.727 125.951 327.294 126.008Z" fill="#5DD3C1"/>
<path d="M316.407 208.96C316.078 208.337 316.063 207.545 316.178 206.112C316.846 204.962 317.385 204.454 317.975 203.985C318.026 204.026 318.126 204.111 318.126 204.111C317.658 205.671 317.19 207.231 316.407 208.96Z" fill="#96D18E"/>
<path d="M103.4 270C103.922 269.241 104.757 268.458 105.796 267.886C105.237 268.722 104.476 269.349 103.4 270Z" fill="#959FC0"/>
<path d="M130.007 15.7717C129.184 15.8369 128.359 15.7008 127.285 15.3706C127.779 15.1257 128.523 15.0751 129.633 15.0961C130.001 15.1678 130.004 15.5704 130.007 15.7717Z" fill="#DD7CDD"/>
<path d="M52.0825 240.325C52.5077 240.224 53.0476 240.409 53.7786 240.813C53.3788 240.891 52.7881 240.752 52.0825 240.325Z" fill="#C184EA"/>
<path d="M319.069 202.069C318.973 202.692 318.828 203.275 318.405 203.984C318.126 204.111 318.026 204.026 318.037 203.707C318.337 202.91 318.626 202.432 318.916 201.953C318.916 201.953 319.02 202.027 319.069 202.069Z" fill="#96D18E"/>
<path d="M293.311 239.012C293.266 238.836 293.474 238.577 293.892 238.184C293.923 238.343 293.743 238.636 293.311 239.012Z" fill="#D8E373"/>
<path d="M63.161 248.286C63.4329 248.206 63.6236 248.416 63.8664 248.858C63.682 248.879 63.4024 248.709 63.161 248.286Z" fill="#CC83E3"/>
<path d="M79.3574 283.923C79.2319 283.692 79.4048 283.462 79.8306 283.169C80.0282 283.41 79.8856 283.682 79.3574 283.923Z" fill="#E387D6"/>
<path d="M294.303 238.018C294.261 237.844 294.471 237.586 294.894 237.197C294.923 237.356 294.738 237.645 294.303 238.018Z" fill="#D8E373"/>
<path d="M37.0922 230.301C37.2922 230.15 37.5117 230.278 37.8203 230.609C37.9402 230.759 37.4839 230.841 37.4839 230.841C37.4839 230.841 37.1426 230.528 37.0922 230.301Z" fill="#CC83E3"/>
<path d="M303.007 53.7015C302.832 53.7484 302.57 53.5452 302.172 53.1315C302.33 53.0978 302.625 53.2746 303.007 53.7015Z" fill="#83BDF6"/>
<path d="M239.992 63.0272C232.565 60.393 225.138 57.7587 217.364 54.9385C217.645 53.2889 217.991 51.5956 218.959 50.4097C220.965 47.9507 223.302 45.7612 225.757 43.232C232.554 47.3742 236.873 42.9927 241.658 39.0562C243.585 41.257 245.97 43.3194 246.584 45.817C247.642 50.1236 247.598 54.7009 247.675 59.7295C244.887 61.2053 242.439 62.1163 239.992 63.0272Z" fill="#8D97F1"/>
<path d="M275.702 49.1699C278.176 54.4825 280.353 59.9621 282.765 65.7191C281.2 68.5546 279.398 71.1127 276.992 73.6899C273.26 71.8082 270.133 69.9074 266.689 67.8197C265.579 64.752 264.783 61.8711 263.988 58.9902C263.99 57.6014 263.993 56.2125 263.997 54.4065C267.801 52.4385 271.603 50.8877 275.702 49.1699Z" fill="#81B1F2"/>
<path d="M263.526 58.9917C264.783 61.8711 265.579 64.7519 266.682 68.2111C266.092 69.8625 265.373 71.5847 264.265 71.8892C260.686 72.8726 260.492 74.3825 262.786 76.9173C263.315 77.5016 263.615 78.2939 263.876 79.1963C263.479 79.6172 263.225 79.8324 262.971 80.0476C255.411 74.5868 247.852 69.126 240.142 63.3463C242.439 62.1164 244.887 61.2054 247.671 60.1411C253.026 59.6562 258.045 59.3247 263.526 58.9917Z" fill="#81A0E8"/>
<path d="M162.038 53.4518C159.265 53.8758 156.527 53.9248 153.394 53.8975C154.262 47.6128 155.575 41.4142 156.771 35.1928C157.598 30.8837 158.806 26.5491 158.853 22.2151C158.904 17.5368 160.318 15.3287 165.567 15.9933C170.637 15.3861 172.758 16.541 173.517 22.065C174.751 31.0467 171.423 39.0541 170.036 47.4516C169.805 48.8485 167.077 49.8633 165.457 50.9895C164.371 51.7448 163.204 52.385 162.038 53.4518Z" fill="#C780E4"/>
<path d="M184.299 53.6052C181.957 53.8647 179.912 53.9167 177.435 53.8935C176.49 53.0284 175.978 52.2385 175.621 51.6885C178.279 50.9513 182.101 51.0615 183.757 49.2216C189.758 42.5542 193.434 34.7944 191.664 25.2852C191.089 22.1952 189.049 18.5119 193.598 16.0322C199.993 22.4451 199.131 30.9821 200.912 38.7152C201.429 40.9585 201.984 43.193 202.764 45.7164C203.038 49.7505 201.139 50.912 197.471 51.1334C193.15 51.3942 188.886 52.601 184.299 53.6052Z" fill="#AC83EB"/>
<path d="M93.1291 247.855C93.1027 247.651 93.2822 247.368 93.7198 247.129C93.8034 247.417 93.5891 247.617 93.1291 247.855Z" fill="#959FC0"/>
<path d="M80.9163 236.021C72.2268 232.506 68.8759 225.451 68.0301 216.69C67.8081 214.39 67.3723 212.111 67.0728 209.047C67.0729 205.852 67.0348 203.432 67.3336 201.106C70.2513 204.693 70.6055 210.159 76.3097 210.94C76.5472 210.972 76.6756 212.09 76.7867 212.714C78.1706 220.482 79.5418 228.252 80.9163 236.021Z" fill="#AC83EB"/>
<path d="M80.9407 236.462C79.5418 228.252 78.1705 220.481 76.7867 212.714C76.6755 212.09 76.5472 210.972 76.3097 210.94C70.6055 210.158 70.2512 204.692 67.0442 200.926C63.632 196.434 60.8463 192.215 58.0605 187.997C57.6433 185.503 57.2261 183.01 56.9175 180.201C61.7468 190.45 71.1113 197.386 77.6777 206.477C79.9397 209.609 81.4815 213.859 81.7503 217.71C82.3275 225.977 81.8628 234.318 81.4556 242.862C81.046 241.032 81.0056 238.968 80.9407 236.462Z" fill="#9775D6"/>
<path d="M58.0574 188.381C60.8462 192.215 63.632 196.434 66.7072 200.832C67.0347 203.432 67.0729 205.851 67.0496 208.635C65.2111 210.612 63.4339 212.226 61.3311 213.917C60.7153 208.592 60.4252 203.189 60.0653 197.394C59.3484 194.257 58.7013 191.511 58.0574 188.381Z" fill="#B883E8"/>
<path d="M81.0256 245.212C81.1988 245.249 81.3639 245.577 81.282 245.993C81.029 245.889 81.0232 245.695 81.0256 245.212Z" fill="#CC83E3"/>
<path d="M264.02 78.9905C263.615 78.2939 263.315 77.5016 262.786 76.9172C260.492 74.3824 260.686 72.8725 264.265 71.8891C265.374 71.5846 266.092 69.8624 266.997 68.3979C270.133 69.9073 273.26 71.8081 276.701 73.8555C277.68 78.0415 278.346 82.0808 278.554 86.5597C275.053 87.008 272.011 87.0166 268.968 87.0252C268.968 87.0252 269 87 269.03 86.712C268.036 85.2907 267.012 84.1576 265.988 83.0244C265.698 82.8534 265.407 82.6824 265.044 81.9314C264.654 80.5644 264.337 79.7775 264.02 78.9905Z" fill="#76AAE7"/>
<path d="M269.007 87.3785C272.011 87.0164 275.053 87.0077 278.551 86.9941C280.825 87.8865 282.643 88.7838 284.763 89.8422C285.049 92.7003 285.034 95.3973 285.009 98.9266C283.658 102.525 282.317 105.291 280.976 108.057C277 101.282 273.023 94.507 269.007 87.3785Z" fill="#6CAED9"/>
<path d="M122.226 230.159C126.032 225.444 131.204 223.252 137.092 223.077C144.412 222.861 151.745 223.045 159.438 223.438C156.541 228.867 153.278 233.914 150.016 238.962C148.191 239.957 145.909 240.554 144.626 242.023C140.647 246.575 135.62 247.994 129.49 247.978C131.254 245.257 133.42 242.529 135.63 239.838C136.254 239.078 137.313 238.542 137.634 237.698C138.177 236.272 138.688 234.595 138.385 233.205C138.267 232.665 135.908 232.561 134.555 232.357C132.066 231.981 129.567 231.677 127.072 231.344C127.097 230.916 127.122 230.488 127.147 230.06C125.582 230.171 124.017 230.282 122.226 230.159Z" fill="#7BA4B7"/>
<path d="M114.004 54.8047C111.613 55.5332 109.17 56.1247 106.842 57.0182C101.584 59.0367 96.3833 61.2043 90.9849 63.6505C87.839 64.0287 86.4573 63.6177 88.2437 60.0101C94.3598 47.6584 100.425 35.1763 101.78 21.2167C102.227 16.6137 104.279 15.6009 108.58 16.004C111.045 16.0066 113.086 16.0084 115.564 16.4673C115.227 22.7638 113.864 28.6001 113.834 34.4434C113.798 41.219 108.833 48.0979 114.004 54.8047Z" fill="#FB77D2"/>
<path d="M85.7475 67.0703C85.5772 67.3509 85.1127 67.6637 84.3369 68.0209C84.5015 67.7444 84.9773 67.4235 85.7475 67.0703Z" fill="#FB8CC5"/>
<path d="M86.8538 66.1519C86.8877 66.3143 86.7103 66.6054 86.2809 66.9726C86.1728 66.7442 86.3773 66.4881 86.8538 66.1519Z" fill="#FB8CC5"/>
<path d="M131.391 52.943C132.659 40.9313 134.331 28.9164 136.004 16.4591C145.999 15.9692 146.238 15.9768 145.912 26.1517C145.711 32.3988 144.575 38.6117 143.99 44.8523C143.565 49.4001 141.092 51.6034 136.662 52.0105C135.025 52.161 133.415 52.621 131.391 52.943Z" fill="#DD7CDD"/>
<path d="M114.404 54.8795C108.833 48.0979 113.798 41.2191 113.834 34.4434C113.864 28.6001 115.227 22.7638 116.001 16.4708C127.848 16.0359 126.176 14.9302 124.221 25.897C123.024 32.6141 123.762 39.6809 123.693 46.5913C123.674 48.4077 123.883 50.2264 123.981 52.4787C123.159 53.0817 122.345 53.2501 121.288 53.616C118.965 54.1938 116.884 54.574 114.404 54.8795Z" fill="#F177D7"/>
<path d="M281.002 108.379C282.317 105.291 283.658 102.525 285.012 99.3764C287.781 98.6465 290.532 98.1122 293.297 98.015C295.31 97.9442 297.343 98.4507 299.685 98.8497C300.002 101.371 300.001 103.741 300.002 106.557C298.708 109.764 297.414 112.526 296.067 115.648C292.341 117.009 288.668 118.011 284.608 119.026C284.166 118.88 284.112 118.721 283.992 118.031C283.675 117.003 283.423 116.506 283.171 116.009C283.122 115.839 283.074 115.669 283.03 114.876C282.668 113.177 282.303 112.102 281.937 111.026C281.937 111.026 281.998 111.004 281.899 110.82C281.651 110.373 281.452 110.154 281.205 109.979C281.146 109.553 281.086 109.127 281.002 108.379Z" fill="#5EC3DF"/>
<path d="M285.449 147.411C285.509 142.045 285.766 137.015 286 131.527C285.977 131.069 286.475 131.031 286.731 131.449C287.938 143.791 289.134 143.955 300.909 141.174C301.391 141.06 301.853 140.863 302.331 140.727C310.728 138.351 319.084 135.583 327.991 137.997C327.995 144.866 327.892 144.446 320.748 146.187C309.332 148.969 298.066 152.372 286.351 155.62C286.159 153.481 285.903 150.614 285.449 147.411Z" fill="#64D2B6"/>
<path d="M327.995 137.551C319.084 135.583 310.728 138.351 302.331 140.728C301.853 140.863 301.391 141.06 300.909 141.174C289.134 143.955 287.938 143.792 286.981 131.445C288.826 131.043 290.688 131.199 292.527 131.055C295.788 130.8 299.056 130.498 302.28 129.968C306.6 129.258 310.853 128.104 315.187 127.532C318.824 127.053 322.535 127.135 326.623 126.992C327.355 130.379 327.677 133.742 327.995 137.551Z" fill="#5DD3C1"/>
<path d="M268.953 190.881C269.284 190.428 269.615 189.975 270.223 189.106C270.712 188.463 270.863 188.2 270.952 187.903C270.952 187.903 270.971 187.972 271.156 187.837C271.549 187.436 271.756 187.168 271.963 186.9C271.963 186.9 271.966 186.977 272.165 186.787C272.556 186.038 272.748 185.479 272.94 184.92C272.94 184.92 272.98 184.982 273.164 184.842C273.555 184.431 273.761 184.161 273.967 183.891C275.42 180.681 276.873 177.471 278.638 174.094C279.339 179.463 279.229 179.239 284.308 176.74C286.379 175.72 289.044 175.906 291.712 175.78C290.395 178.259 288.805 180.502 286.771 183.372C288.795 183.66 290.014 183.833 291.61 184.005C290.024 187.101 288.06 190.196 286.047 193.645C285.997 193.998 285.985 193.994 285.62 194.006C283.243 195.111 281.11 196.032 279.239 197.33C274.028 200.943 269.06 204.922 263.746 208.37C256.16 213.292 248.678 218.564 240.546 222.403C232.078 226.4 222.891 228.872 213.61 232.079C209.136 232.1 205.07 232.052 201.311 231.759C204.663 230.896 207.812 230.59 210.73 229.6C217.999 227.136 225.181 224.406 232.36 221.683C234.365 220.923 236.352 219.992 238.155 218.838C244.806 214.584 251.686 210.593 257.838 205.697C260.651 203.458 261.972 199.345 263.969 196.082C263.969 196.082 263.967 195.951 264.212 195.832C264.68 195.52 264.843 195.287 264.945 195.012C264.945 195.012 264.941 194.958 265.168 194.821C265.645 194.473 265.833 194.215 265.959 193.913C265.959 193.913 265.98 193.981 266.166 193.843C266.556 193.437 266.761 193.17 266.965 192.903C266.965 192.903 266.972 192.973 267.156 192.841C267.547 192.443 267.754 192.178 267.961 191.912C267.961 191.912 267.979 191.979 268.163 191.838C268.55 191.425 268.751 191.153 268.953 190.881Z" fill="#80C48B"/>
<path d="M201.003 232.004C205.07 232.052 209.136 232.1 213.564 232.395C213.618 233.433 213.312 234.224 213.005 235.016C201.227 238.322 189.131 240.819 177.796 245.259C171.673 247.657 167.015 253.619 161.347 257.46C159.406 258.776 156.405 258.53 153.453 258.997C152.627 257.582 151.655 256.014 151.98 254.79C152.465 252.964 153.865 251.38 155.329 249.345C159.562 247.45 163.432 246.091 167.099 244.312C172.079 241.896 176.892 239.135 181.8 236.568C184.172 235.328 186.6 234.195 189.435 233.01C193.58 232.672 197.292 232.338 201.003 232.004Z" fill="#86C995"/>
<path d="M150.374 239.027C153.278 233.914 156.541 228.867 159.902 223.508C166.69 223.146 173.381 223.095 180.302 223.348C178.905 225.418 177.279 227.184 175.546 229.067C175.984 230.27 176.477 231.624 176.59 232.993C169.138 235.334 162.067 237.659 154.996 239.983C153.575 239.686 152.154 239.389 150.374 239.027Z" fill="#6DA8AC"/>
<path d="M154.995 240.369C162.067 237.659 169.138 235.334 177.054 233C181.6 232.999 185.301 233.006 189.003 233.013C186.6 234.195 184.172 235.328 181.8 236.568C176.892 239.135 172.079 241.896 167.099 244.312C163.432 246.091 159.563 247.45 155.391 248.997C150.99 246.252 156.131 243.502 154.995 240.369Z" fill="#83C09F"/>
<path d="M200.956 258.655C191.472 258.86 181.991 259.358 172.406 257.452C183.705 246.603 198.513 245.191 212.981 240.934C237.565 236.647 257.496 224.274 277.137 211.29C277.848 212.719 278.424 213.859 279 214.999C276.232 217.187 273.433 219.338 270.712 221.582C269.75 222.376 268.978 223.399 268.057 224.657C262.966 227.068 257.864 228.98 252.922 231.244C239.519 237.382 226.092 243.483 212.875 250.007C208.597 252.119 204.942 255.495 200.956 258.655Z" fill="#A7D57E"/>
<path d="M279.352 214.944C278.424 213.859 277.848 212.719 277.312 211.001C279.594 208.764 281.706 206.881 284.103 205.487C291.168 201.377 297.308 195.3 306.001 194.565C308.3 194.371 311.566 196.061 312.82 195.012C315.634 192.656 317.648 194.326 320.01 194.982C319.661 197.04 319.312 199.098 318.939 201.554C318.626 202.431 318.337 202.91 317.985 203.667C317.385 204.453 316.846 204.962 316.174 205.716C306.151 200.102 297.812 206.248 289.203 209.6C285.858 210.902 282.861 213.099 279.352 214.944Z" fill="#A1DD7C"/>
<path d="M320.166 194.655C317.648 194.326 315.634 192.656 312.82 195.012C311.566 196.061 308.3 194.371 306.001 194.565C297.308 195.3 291.168 201.377 284.103 205.487C281.706 206.881 279.594 208.764 277.176 210.712C257.496 224.274 237.565 236.647 213.392 240.931C214.296 239.56 215.589 238.123 217.359 236.345C219.937 235.605 222.216 235.599 224.113 234.745C236.557 229.145 250.053 225.693 260.781 216.562C268.319 210.147 276.126 204.048 283.713 197.689C284.764 196.808 285.242 195.243 285.985 193.994C285.985 193.994 285.997 193.998 285.993 193.994C288.033 193.47 290.541 193.534 292.046 192.337C300.982 185.226 311.379 184.642 322.528 185.003C322.103 188.112 321.213 191.221 320.166 194.655Z" fill="#96D583"/>
<path d="M285.62 194.006C285.242 195.243 284.764 196.808 283.713 197.689C276.126 204.048 268.319 210.147 260.781 216.562C250.053 225.693 236.557 229.145 224.113 234.745C222.216 235.599 219.937 235.605 217.423 236.005C215.853 235.83 214.695 235.653 213.271 235.246C213.312 234.224 213.618 233.433 213.971 232.326C222.891 228.873 232.078 226.401 240.546 222.403C248.678 218.565 256.16 213.292 263.746 208.371C269.06 204.923 274.028 200.943 279.239 197.33C281.11 196.033 283.243 195.111 285.62 194.006Z" fill="#90CC86"/>
<path d="M189.435 233.01C185.301 233.006 181.6 232.999 177.434 232.985C176.477 231.624 175.984 230.27 175.546 229.067C177.279 227.185 178.905 225.419 180.765 223.422C191.583 222.796 202.24 223.039 212.735 221.85C227.353 220.194 240.787 214.767 252.586 205.818C256.391 202.932 259.774 199.489 263.66 196.191C261.972 199.345 260.651 203.459 257.838 205.697C251.686 210.593 244.806 214.584 238.155 218.839C236.352 219.992 234.365 220.923 232.36 221.683C225.181 224.406 217.999 227.137 210.73 229.601C207.812 230.59 204.663 230.897 201.311 231.759C197.292 232.338 193.58 232.672 189.435 233.01Z" fill="#73BB96"/>
<path d="M134.232 121.37C129.504 137.283 117.869 143.356 106.065 136.432C100.141 132.957 96.4272 127.934 96.6424 120.612C96.7759 116.071 96.6259 111.523 96.6404 106.978C96.6764 95.7216 103.207 88.5633 113.632 88.3253C125.481 88.0548 133.654 95.185 134.221 106.52C134.458 111.269 134.255 116.041 134.232 121.37Z" fill="#F0F0F0"/>
<path d="M211.356 89.5587C228.852 83.8542 240.151 95.1021 238.303 109.422C237.781 113.467 238.357 117.643 238.214 121.751C237.919 130.215 229.967 138.416 221.699 138.945C211.944 139.57 203.424 133.856 202.219 124.767C201.301 117.843 201.705 110.722 201.807 103.693C201.9 97.2491 205.631 92.9448 211.356 89.5587Z" fill="#F0F0F0"/>
<path d="M157.682 197.173C144.888 197.067 133.536 192.228 122.607 186.231C119.071 184.29 115.913 181.658 112.59 179.332C107.453 175.736 106.11 170.652 109.142 166.318C112.395 161.667 118.806 160.796 123.261 165.269C129.414 171.446 136.753 175.113 145.013 176.748C153.968 178.521 163.088 179.464 172.693 181.317C170.784 188.606 169.486 196.532 159.29 195.351C158.83 195.298 158.221 196.536 157.682 197.173Z" fill="#F0F0F0"/>
<path d="M190.225 178.272C198.027 173.916 205.797 169.499 213.645 165.227C217.728 163.005 222.189 159.744 226.313 164.614C230.253 169.267 228.218 176.478 222.923 180.481C211.802 188.887 199.39 194.25 185.312 196.603C188.297 193.95 191.771 191.746 195.114 189.625C193.584 186.072 191.904 182.172 190.225 178.272Z" fill="#F0F0F0"/>
<path d="M189.698 178.229C191.904 182.172 193.584 186.072 195.114 189.625C191.771 191.746 188.297 193.95 184.886 196.59C184.433 197.085 183.916 197.145 182.731 196.695C178.01 193.748 174.736 194.664 172.142 198.495C167.681 198.132 163.22 197.769 158.22 197.289C158.221 196.536 158.83 195.298 159.29 195.351C169.486 196.532 170.784 188.607 173.289 181.4C178.608 180.017 183.89 179.101 189.698 178.229Z" fill="#F0F0F0"/>
<path d="M172.63 198.561C174.737 194.664 178.01 193.748 182.343 196.639C179.455 197.604 176.287 198.116 172.63 198.561Z" fill="#F0F0F0"/>
<path d="M266.022 83.356C267.012 84.1578 268.036 85.2909 269.017 86.7276C268.001 85.9166 267.028 84.8019 266.022 83.356Z" fill="#6CAED9"/>
<path d="M263.876 79.1963C264.337 79.7776 264.654 80.5645 264.967 81.6821C264.362 81.542 263.761 81.0713 263.066 80.3241C263.225 79.8324 263.479 79.6172 263.876 79.1963Z" fill="#6CAED9"/>
<path d="M281.967 111.388C282.303 112.102 282.668 113.177 283.017 114.611C282.666 113.897 282.331 112.823 281.967 111.388Z" fill="#6CAED9"/>
<path d="M272.652 185.048C272.748 185.479 272.556 186.038 272.126 186.786C272.048 186.375 272.206 185.776 272.652 185.048Z" fill="#73BB96"/>
<path d="M283.103 116.319C283.423 116.506 283.675 117.003 283.947 117.784C283.656 117.588 283.346 117.109 283.103 116.319Z" fill="#6CAED9"/>
<path d="M264.728 195.088C264.843 195.287 264.68 195.52 264.277 195.827C264.082 195.602 264.22 195.342 264.728 195.088Z" fill="#73BB96"/>
<path d="M265.71 193.99C265.833 194.216 265.645 194.473 265.194 194.816C265.149 194.653 265.304 194.359 265.71 193.99Z" fill="#73BB96"/>
<path d="M266.708 192.984C266.761 193.17 266.556 193.437 266.132 193.832C266.092 193.662 266.272 193.364 266.708 192.984Z" fill="#73BB96"/>
<path d="M267.705 191.995C267.754 192.178 267.547 192.443 267.12 192.839C267.084 192.671 267.267 192.374 267.705 191.995Z" fill="#73BB96"/>
<path d="M268.706 190.98C268.752 191.153 268.55 191.425 268.129 191.831C268.093 191.67 268.276 191.375 268.706 190.98Z" fill="#73BB96"/>
<path d="M270.702 187.989C270.863 188.201 270.712 188.463 270.33 188.841C270.257 188.686 270.355 188.38 270.702 187.989Z" fill="#73BB96"/>
<path d="M271.707 186.986C271.756 187.168 271.549 187.436 271.121 187.834C271.084 187.667 271.268 187.369 271.707 186.986Z" fill="#73BB96"/>
<path d="M273.714 183.982C273.761 184.161 273.555 184.431 273.128 184.835C273.091 184.67 273.276 184.372 273.714 183.982Z" fill="#73BB96"/>
<path d="M281.148 110.241C281.452 110.154 281.651 110.373 281.878 110.845C281.668 110.87 281.38 110.686 281.148 110.241Z" fill="#6CAED9"/>
</svg>
